<svg width="1678" height="449" viewBox="0 0 1678 449" fill="none" xmlns="http://www.w3.org/2000/svg">
<rect x="112.901" y="0.895508" width="1441.94" height="367.52" fill="url(#paint0_linear_733_884)"/>
<g style="mix-blend-mode:multiply" opacity="0.5">
<path d="M724.431 391.632H669.834V206.305H724.431V391.632Z" fill="#ADD2DB"/>
<path d="M739.431 391.632H724.431V206.305H739.431V391.632Z" fill="#96C4CC"/>
<g style="mix-blend-mode:overlay">
<path d="M735.145 218.191H724.517V214.05H735.145V218.191Z" fill="#96C4CC"/>
</g>
<g style="mix-blend-mode:overlay">
<path d="M735.145 232.682H724.517V228.618H735.145V232.682Z" fill="#96C4CC"/>
</g>
<g style="mix-blend-mode:overlay">
<path d="M735.145 247.25H724.517V243.11H735.145V247.25Z" fill="#96C4CC"/>
</g>
<g style="mix-blend-mode:overlay">
<path d="M735.145 261.819H724.517V257.679H735.145V261.819Z" fill="#96C4CC"/>
</g>
<g style="mix-blend-mode:overlay">
<path d="M735.145 276.311H724.517V272.248H735.145V276.311Z" fill="#96C4CC"/>
</g>
<g style="mix-blend-mode:overlay">
<path d="M735.145 290.879H724.517V286.739H735.145V290.879Z" fill="#96C4CC"/>
</g>
<g style="mix-blend-mode:overlay">
<path d="M735.145 305.371H724.517V301.307H735.145V305.371Z" fill="#96C4CC"/>
</g>
<g style="mix-blend-mode:overlay">
<path d="M735.145 319.94H724.517V315.8H735.145V319.94Z" fill="#96C4CC"/>
</g>
<g style="mix-blend-mode:overlay">
<path d="M735.145 334.508H724.517V330.367H735.145V334.508Z" fill="#96C4CC"/>
</g>
<g style="mix-blend-mode:overlay">
<path d="M735.145 349H724.517V344.936H735.145V349Z" fill="#96C4CC"/>
</g>
<g style="mix-blend-mode:overlay">
<path d="M735.145 363.569H724.517V359.428H735.145V363.569Z" fill="#96C4CC"/>
</g>
<g style="mix-blend-mode:overlay">
<path d="M724.517 218.191H703.346V214.05H724.517V218.191Z" fill="#ADD2DB"/>
</g>
<g style="mix-blend-mode:overlay">
<path d="M724.517 232.682H703.346V228.618H724.517V232.682Z" fill="#ADD2DB"/>
</g>
<g style="mix-blend-mode:overlay">
<path d="M724.517 247.25H703.346V243.11H724.517V247.25Z" fill="#ADD2DB"/>
</g>
<g style="mix-blend-mode:overlay">
<path d="M724.517 261.819H703.346V257.679H724.517V261.819Z" fill="#ADD2DB"/>
</g>
<g style="mix-blend-mode:overlay">
<path d="M724.517 276.311H703.346V272.248H724.517V276.311Z" fill="#ADD2DB"/>
</g>
<g style="mix-blend-mode:overlay">
<path d="M724.517 290.879H703.346V286.739H724.517V290.879Z" fill="#ADD2DB"/>
</g>
<g style="mix-blend-mode:overlay">
<path d="M724.517 305.371H703.346V301.307H724.517V305.371Z" fill="#ADD2DB"/>
</g>
<g style="mix-blend-mode:overlay">
<path d="M724.517 319.94H703.346V315.8H724.517V319.94Z" fill="#ADD2DB"/>
</g>
<g style="mix-blend-mode:overlay">
<path d="M724.517 334.509H703.346V330.369H724.517V334.509Z" fill="#ADD2DB"/>
</g>
<g style="mix-blend-mode:overlay">
<path d="M724.517 349.001H703.346V344.938H724.517V349.001Z" fill="#ADD2DB"/>
</g>
<g style="mix-blend-mode:overlay">
<path d="M724.517 363.569H703.346V359.428H724.517V363.569Z" fill="#ADD2DB"/>
</g>
<g style="mix-blend-mode:overlay">
<path d="M724.517 378.06H703.346V373.997H724.517V378.06Z" fill="#ADD2DB"/>
</g>
<g style="mix-blend-mode:overlay">
<path d="M697.176 218.191H676.091V214.05H697.176V218.191Z" fill="#ADD2DB"/>
</g>
<g style="mix-blend-mode:overlay">
<path d="M697.176 232.682H676.091V228.618H697.176V232.682Z" fill="#ADD2DB"/>
</g>
<g style="mix-blend-mode:overlay">
<path d="M697.176 247.25H676.091V243.11H697.176V247.25Z" fill="#ADD2DB"/>
</g>
<g style="mix-blend-mode:overlay">
<path d="M697.176 261.819H676.091V257.679H697.176V261.819Z" fill="#ADD2DB"/>
</g>
<g style="mix-blend-mode:overlay">
<path d="M697.176 276.311H676.091V272.248H697.176V276.311Z" fill="#ADD2DB"/>
</g>
<g style="mix-blend-mode:overlay">
<path d="M697.176 290.879H676.091V286.739H697.176V290.879Z" fill="#ADD2DB"/>
</g>
<g style="mix-blend-mode:overlay">
<path d="M697.176 305.371H676.091V301.307H697.176V305.371Z" fill="#ADD2DB"/>
</g>
<g style="mix-blend-mode:overlay">
<path d="M697.176 319.94H676.091V315.8H697.176V319.94Z" fill="#ADD2DB"/>
</g>
<g style="mix-blend-mode:overlay">
<path d="M697.176 334.509H676.091V330.369H697.176V334.509Z" fill="#ADD2DB"/>
</g>
<g style="mix-blend-mode:overlay">
<path d="M697.176 349.001H676.091V344.938H697.176V349.001Z" fill="#ADD2DB"/>
</g>
<g style="mix-blend-mode:overlay">
<path d="M697.176 363.569H676.091V359.428H697.176V363.569Z" fill="#ADD2DB"/>
</g>
<g style="mix-blend-mode:overlay">
<path d="M697.176 378.06H676.091V373.997H697.176V378.06Z" fill="#ADD2DB"/>
</g>
<g style="mix-blend-mode:overlay">
<path d="M735.145 378.06H724.517V373.997H735.145V378.06Z" fill="#96C4CC"/>
</g>
<path d="M839.369 391.633H740.716V68.2881H839.369V391.633Z" fill="#ADD2DB"/>
<path d="M866.367 391.633H839.369V68.2881H866.367V391.633Z" fill="#96C4CC"/>
<g style="mix-blend-mode:overlay">
<path d="M858.739 88.9136H839.369V81.7827H858.739V88.9136Z" fill="#96C4CC"/>
</g>
<g style="mix-blend-mode:overlay">
<path d="M858.739 114.294H839.369V107.163H858.739V114.294Z" fill="#96C4CC"/>
</g>
<g style="mix-blend-mode:overlay">
<path d="M858.739 139.674H839.369V132.543H858.739V139.674Z" fill="#96C4CC"/>
</g>
<g style="mix-blend-mode:overlay">
<path d="M858.739 165.054H839.369V157.846H858.739V165.054Z" fill="#96C4CC"/>
</g>
<g style="mix-blend-mode:overlay">
<path d="M858.739 190.433H839.369V183.225H858.739V190.433Z" fill="#96C4CC"/>
</g>
<g style="mix-blend-mode:overlay">
<path d="M858.739 215.814H839.369V208.606H858.739V215.814Z" fill="#96C4CC"/>
</g>
<g style="mix-blend-mode:overlay">
<path d="M858.739 241.193H839.369V233.985H858.739V241.193Z" fill="#96C4CC"/>
</g>
<g style="mix-blend-mode:overlay">
<path d="M858.739 266.497H839.369V259.366H858.739V266.497Z" fill="#96C4CC"/>
</g>
<g style="mix-blend-mode:overlay">
<path d="M858.739 291.876H839.369V284.745H858.739V291.876Z" fill="#96C4CC"/>
</g>
<g style="mix-blend-mode:overlay">
<path d="M858.739 317.256H839.369V310.125H858.739V317.256Z" fill="#96C4CC"/>
</g>
<g style="mix-blend-mode:overlay">
<path d="M858.739 342.636H839.369V335.505H858.739V342.636Z" fill="#96C4CC"/>
</g>
<g style="mix-blend-mode:overlay">
<path d="M839.369 88.9136H801.228V81.7827H839.369V88.9136Z" fill="#ADD2DB"/>
</g>
<g style="mix-blend-mode:overlay">
<path d="M839.369 114.294H801.228V107.163H839.369V114.294Z" fill="#ADD2DB"/>
</g>
<g style="mix-blend-mode:overlay">
<path d="M839.369 139.674H801.228V132.543H839.369V139.674Z" fill="#ADD2DB"/>
</g>
<g style="mix-blend-mode:overlay">
<path d="M839.369 165.054H801.228V157.846H839.369V165.054Z" fill="#ADD2DB"/>
</g>
<g style="mix-blend-mode:overlay">
<path d="M839.369 190.433H801.228V183.225H839.369V190.433Z" fill="#ADD2DB"/>
</g>
<g style="mix-blend-mode:overlay">
<path d="M839.369 215.814H801.228V208.606H839.369V215.814Z" fill="#ADD2DB"/>
</g>
<g style="mix-blend-mode:overlay">
<path d="M839.369 241.193H801.228V233.985H839.369V241.193Z" fill="#ADD2DB"/>
</g>
<g style="mix-blend-mode:overlay">
<path d="M839.369 266.497H801.228V259.366H839.369V266.497Z" fill="#ADD2DB"/>
</g>
<g style="mix-blend-mode:overlay">
<path d="M839.369 291.876H801.228V284.745H839.369V291.876Z" fill="#ADD2DB"/>
</g>
<g style="mix-blend-mode:overlay">
<path d="M839.369 317.256H801.228V310.125H839.369V317.256Z" fill="#ADD2DB"/>
</g>
<g style="mix-blend-mode:overlay">
<path d="M839.369 342.636H801.228V335.505H839.369V342.636Z" fill="#ADD2DB"/>
</g>
<g style="mix-blend-mode:overlay">
<path d="M839.369 368.017H801.228V360.886H839.369V368.017Z" fill="#ADD2DB"/>
</g>
<g style="mix-blend-mode:overlay">
<path d="M790.085 88.9136H751.944V81.7827H790.085V88.9136Z" fill="#ADD2DB"/>
</g>
<g style="mix-blend-mode:overlay">
<path d="M790.085 114.294H751.944V107.163H790.085V114.294Z" fill="#ADD2DB"/>
</g>
<g style="mix-blend-mode:overlay">
<path d="M790.085 139.674H751.944V132.543H790.085V139.674Z" fill="#ADD2DB"/>
</g>
<g style="mix-blend-mode:overlay">
<path d="M790.085 165.054H751.944V157.846H790.085V165.054Z" fill="#ADD2DB"/>
</g>
<g style="mix-blend-mode:overlay">
<path d="M790.085 190.433H751.944V183.225H790.085V190.433Z" fill="#ADD2DB"/>
</g>
<g style="mix-blend-mode:overlay">
<path d="M790.085 215.814H751.944V208.606H790.085V215.814Z" fill="#ADD2DB"/>
</g>
<g style="mix-blend-mode:overlay">
<path d="M790.085 241.193H751.944V233.985H790.085V241.193Z" fill="#ADD2DB"/>
</g>
<g style="mix-blend-mode:overlay">
<path d="M790.085 266.497H751.944V259.366H790.085V266.497Z" fill="#ADD2DB"/>
</g>
<g style="mix-blend-mode:overlay">
<path d="M790.085 291.876H751.944V284.745H790.085V291.876Z" fill="#ADD2DB"/>
</g>
<g style="mix-blend-mode:overlay">
<path d="M790.085 317.256H751.944V310.125H790.085V317.256Z" fill="#ADD2DB"/>
</g>
<g style="mix-blend-mode:overlay">
<path d="M790.085 342.636H751.944V335.505H790.085V342.636Z" fill="#ADD2DB"/>
</g>
<g style="mix-blend-mode:overlay">
<path d="M790.085 368.017H751.944V360.886H790.085V368.017Z" fill="#ADD2DB"/>
</g>
<g style="mix-blend-mode:overlay">
<path d="M858.739 368.017H839.369V360.886H858.739V368.017Z" fill="#96C4CC"/>
</g>
<path d="M1045.59 391.633H966.562V132.543H1045.59V391.633Z" fill="#ADD2DB"/>
<path d="M1067.19 391.633H1045.59V132.543H1067.19V391.633Z" fill="#96C4CC"/>
<g style="mix-blend-mode:overlay">
<path d="M1061.02 149.105H1045.59V143.354H1061.02V149.105Z" fill="#96C4CC"/>
</g>
<g style="mix-blend-mode:overlay">
<path d="M1061.02 169.424H1045.59V163.673H1061.02V169.424Z" fill="#96C4CC"/>
</g>
<g style="mix-blend-mode:overlay">
<path d="M1061.02 189.744H1045.59V183.993H1061.02V189.744Z" fill="#96C4CC"/>
</g>
<g style="mix-blend-mode:overlay">
<path d="M1061.02 210.062H1045.59V204.312H1061.02V210.062Z" fill="#96C4CC"/>
</g>
<g style="mix-blend-mode:overlay">
<path d="M1061.02 230.383H1045.59V224.632H1061.02V230.383Z" fill="#96C4CC"/>
</g>
<g style="mix-blend-mode:overlay">
<path d="M1061.02 250.701H1045.59V244.95H1061.02V250.701Z" fill="#96C4CC"/>
</g>
<g style="mix-blend-mode:overlay">
<path d="M1061.02 271.021H1045.59V265.347H1061.02V271.021Z" fill="#96C4CC"/>
</g>
<g style="mix-blend-mode:overlay">
<path d="M1061.02 291.417H1045.59V285.666H1061.02V291.417Z" fill="#96C4CC"/>
</g>
<g style="mix-blend-mode:overlay">
<path d="M1061.02 311.736H1045.59V305.985H1061.02V311.736Z" fill="#96C4CC"/>
</g>
<g style="mix-blend-mode:overlay">
<path d="M1061.02 332.054H1045.59V326.304H1061.02V332.054Z" fill="#96C4CC"/>
</g>
<g style="mix-blend-mode:overlay">
<path d="M1061.02 352.375H1045.59V346.625H1061.02V352.375Z" fill="#96C4CC"/>
</g>
<g style="mix-blend-mode:overlay">
<path d="M1045.59 149.105H1014.99V143.354H1045.59V149.105Z" fill="#ADD2DB"/>
</g>
<g style="mix-blend-mode:overlay">
<path d="M1045.59 169.424H1014.99V163.673H1045.59V169.424Z" fill="#ADD2DB"/>
</g>
<g style="mix-blend-mode:overlay">
<path d="M1045.59 189.744H1014.99V183.993H1045.59V189.744Z" fill="#ADD2DB"/>
</g>
<g style="mix-blend-mode:overlay">
<path d="M1045.59 210.062H1014.99V204.312H1045.59V210.062Z" fill="#ADD2DB"/>
</g>
<g style="mix-blend-mode:overlay">
<path d="M1045.59 230.383H1014.99V224.632H1045.59V230.383Z" fill="#ADD2DB"/>
</g>
<g style="mix-blend-mode:overlay">
<path d="M1045.59 250.701H1014.99V244.95H1045.59V250.701Z" fill="#ADD2DB"/>
</g>
<g style="mix-blend-mode:overlay">
<path d="M1045.59 271.021H1014.99V265.347H1045.59V271.021Z" fill="#ADD2DB"/>
</g>
<g style="mix-blend-mode:overlay">
<path d="M1045.59 291.417H1014.99V285.666H1045.59V291.417Z" fill="#ADD2DB"/>
</g>
<g style="mix-blend-mode:overlay">
<path d="M1045.59 311.736H1014.99V305.985H1045.59V311.736Z" fill="#ADD2DB"/>
</g>
<g style="mix-blend-mode:overlay">
<path d="M1045.59 332.054H1014.99V326.304H1045.59V332.054Z" fill="#ADD2DB"/>
</g>
<g style="mix-blend-mode:overlay">
<path d="M1045.59 352.375H1014.99V346.625H1045.59V352.375Z" fill="#ADD2DB"/>
</g>
<g style="mix-blend-mode:overlay">
<path d="M1045.59 372.694H1014.99V366.943H1045.59V372.694Z" fill="#ADD2DB"/>
</g>
<g style="mix-blend-mode:overlay">
<path d="M1006.08 149.105H975.477V143.354H1006.08V149.105Z" fill="#ADD2DB"/>
</g>
<g style="mix-blend-mode:overlay">
<path d="M1006.08 169.424H975.477V163.673H1006.08V169.424Z" fill="#ADD2DB"/>
</g>
<g style="mix-blend-mode:overlay">
<path d="M1006.08 189.744H975.477V183.993H1006.08V189.744Z" fill="#ADD2DB"/>
</g>
<g style="mix-blend-mode:overlay">
<path d="M1006.08 210.062H975.477V204.312H1006.08V210.062Z" fill="#ADD2DB"/>
</g>
<g style="mix-blend-mode:overlay">
<path d="M1006.08 230.383H975.477V224.632H1006.08V230.383Z" fill="#ADD2DB"/>
</g>
<g style="mix-blend-mode:overlay">
<path d="M1006.08 250.701H975.477V244.95H1006.08V250.701Z" fill="#ADD2DB"/>
</g>
<g style="mix-blend-mode:overlay">
<path d="M1006.08 271.021H975.477V265.347H1006.08V271.021Z" fill="#ADD2DB"/>
</g>
<g style="mix-blend-mode:overlay">
<path d="M1006.08 291.417H975.477V285.666H1006.08V291.417Z" fill="#ADD2DB"/>
</g>
<g style="mix-blend-mode:overlay">
<path d="M1006.08 311.736H975.477V305.985H1006.08V311.736Z" fill="#ADD2DB"/>
</g>
<g style="mix-blend-mode:overlay">
<path d="M1006.08 332.054H975.477V326.304H1006.08V332.054Z" fill="#ADD2DB"/>
</g>
<g style="mix-blend-mode:overlay">
<path d="M1006.08 352.375H975.477V346.625H1006.08V352.375Z" fill="#ADD2DB"/>
</g>
<g style="mix-blend-mode:overlay">
<path d="M1006.08 372.694H975.477V366.943H1006.08V372.694Z" fill="#ADD2DB"/>
</g>
<g style="mix-blend-mode:overlay">
<path d="M1061.02 372.694H1045.59V366.943H1061.02V372.694Z" fill="#96C4CC"/>
</g>
<path d="M641.121 391.632H542.554V54.1792H641.121V391.632Z" fill="#ADD2DB"/>
<path d="M668.205 391.632H641.121V54.1792H668.205V391.632Z" fill="#96C4CC"/>
<g style="mix-blend-mode:overlay">
<path d="M660.491 75.7257H641.206V68.2881H660.491V75.7257Z" fill="#96C4CC"/>
</g>
<g style="mix-blend-mode:overlay">
<path d="M660.491 102.178H641.206V94.7407H660.491V102.178Z" fill="#96C4CC"/>
</g>
<g style="mix-blend-mode:overlay">
<path d="M660.491 128.71H641.206V121.195H660.491V128.71Z" fill="#96C4CC"/>
</g>
<g style="mix-blend-mode:overlay">
<path d="M660.491 155.162H641.206V147.724H660.491V155.162Z" fill="#96C4CC"/>
</g>
<g style="mix-blend-mode:overlay">
<path d="M660.491 181.615H641.206V174.178H660.491V181.615Z" fill="#96C4CC"/>
</g>
<g style="mix-blend-mode:overlay">
<path d="M660.491 208.146H641.206V200.631H660.491V208.146Z" fill="#96C4CC"/>
</g>
<g style="mix-blend-mode:overlay">
<path d="M660.491 234.6H641.206V227.085H660.491V234.6Z" fill="#96C4CC"/>
</g>
<g style="mix-blend-mode:overlay">
<path d="M660.491 261.052H641.206V253.614H660.491V261.052Z" fill="#96C4CC"/>
</g>
<g style="mix-blend-mode:overlay">
<path d="M660.491 287.583H641.206V280.069H660.491V287.583Z" fill="#96C4CC"/>
</g>
<g style="mix-blend-mode:overlay">
<path d="M660.491 314.036H641.206V306.521H660.491V314.036Z" fill="#96C4CC"/>
</g>
<g style="mix-blend-mode:overlay">
<path d="M660.491 340.489H641.206V333.052H660.491V340.489Z" fill="#96C4CC"/>
</g>
<g style="mix-blend-mode:overlay">
<path d="M641.206 75.7257H602.979V68.2881H641.206V75.7257Z" fill="#ADD2DB"/>
</g>
<g style="mix-blend-mode:overlay">
<path d="M641.206 102.178H602.979V94.7407H641.206V102.178Z" fill="#ADD2DB"/>
</g>
<g style="mix-blend-mode:overlay">
<path d="M641.206 128.71H602.979V121.195H641.206V128.71Z" fill="#ADD2DB"/>
</g>
<g style="mix-blend-mode:overlay">
<path d="M641.206 155.162H602.979V147.724H641.206V155.162Z" fill="#ADD2DB"/>
</g>
<g style="mix-blend-mode:overlay">
<path d="M641.206 181.615H602.979V174.178H641.206V181.615Z" fill="#ADD2DB"/>
</g>
<g style="mix-blend-mode:overlay">
<path d="M641.206 208.146H602.979V200.631H641.206V208.146Z" fill="#ADD2DB"/>
</g>
<g style="mix-blend-mode:overlay">
<path d="M641.206 234.6H602.979V227.085H641.206V234.6Z" fill="#ADD2DB"/>
</g>
<g style="mix-blend-mode:overlay">
<path d="M641.206 261.052H602.979V253.614H641.206V261.052Z" fill="#ADD2DB"/>
</g>
<g style="mix-blend-mode:overlay">
<path d="M641.206 287.583H602.979V280.069H641.206V287.583Z" fill="#ADD2DB"/>
</g>
<g style="mix-blend-mode:overlay">
<path d="M641.206 314.036H602.979V306.521H641.206V314.036Z" fill="#ADD2DB"/>
</g>
<g style="mix-blend-mode:overlay">
<path d="M641.206 340.489H602.979V333.052H641.206V340.489Z" fill="#ADD2DB"/>
</g>
<g style="mix-blend-mode:overlay">
<path d="M641.206 367.019H602.979V359.505H641.206V367.019Z" fill="#ADD2DB"/>
</g>
<g style="mix-blend-mode:overlay">
<path d="M591.837 75.7257H553.696V68.2881H591.837V75.7257Z" fill="#ADD2DB"/>
</g>
<g style="mix-blend-mode:overlay">
<path d="M591.837 102.178H553.696V94.7407H591.837V102.178Z" fill="#ADD2DB"/>
</g>
<g style="mix-blend-mode:overlay">
<path d="M591.837 128.71H553.696V121.195H591.837V128.71Z" fill="#ADD2DB"/>
</g>
<g style="mix-blend-mode:overlay">
<path d="M591.837 155.162H553.696V147.724H591.837V155.162Z" fill="#ADD2DB"/>
</g>
<g style="mix-blend-mode:overlay">
<path d="M591.837 181.615H553.696V174.178H591.837V181.615Z" fill="#ADD2DB"/>
</g>
<g style="mix-blend-mode:overlay">
<path d="M591.837 208.146H553.696V200.631H591.837V208.146Z" fill="#ADD2DB"/>
</g>
<g style="mix-blend-mode:overlay">
<path d="M591.837 234.6H553.696V227.085H591.837V234.6Z" fill="#ADD2DB"/>
</g>
<g style="mix-blend-mode:overlay">
<path d="M591.837 261.052H553.696V253.614H591.837V261.052Z" fill="#ADD2DB"/>
</g>
<g style="mix-blend-mode:overlay">
<path d="M591.837 287.583H553.696V280.069H591.837V287.583Z" fill="#ADD2DB"/>
</g>
<g style="mix-blend-mode:overlay">
<path d="M591.837 314.036H553.696V306.521H591.837V314.036Z" fill="#ADD2DB"/>
</g>
<g style="mix-blend-mode:overlay">
<path d="M591.837 340.489H553.696V333.052H591.837V340.489Z" fill="#ADD2DB"/>
</g>
<g style="mix-blend-mode:overlay">
<path d="M591.837 367.019H553.696V359.505H591.837V367.019Z" fill="#ADD2DB"/>
</g>
<g style="mix-blend-mode:overlay">
<path d="M660.491 367.02H641.206V359.506H660.491V367.02Z" fill="#96C4CC"/>
</g>
<path d="M1165.75 391.632H1067.1V54.1792H1165.75V391.632Z" fill="#ADD2DB"/>
<path d="M1192.75 391.632H1165.75V54.1792H1192.75V391.632Z" fill="#96C4CC"/>
<g style="mix-blend-mode:overlay">
<path d="M1185.12 75.7257H1165.75V68.2881H1185.12V75.7257Z" fill="#96C4CC"/>
</g>
<g style="mix-blend-mode:overlay">
<path d="M1185.12 102.178H1165.75V94.7407H1185.12V102.178Z" fill="#96C4CC"/>
</g>
<g style="mix-blend-mode:overlay">
<path d="M1185.12 128.71H1165.75V121.195H1185.12V128.71Z" fill="#96C4CC"/>
</g>
<g style="mix-blend-mode:overlay">
<path d="M1185.12 155.162H1165.75V147.724H1185.12V155.162Z" fill="#96C4CC"/>
</g>
<g style="mix-blend-mode:overlay">
<path d="M1185.12 181.615H1165.75V174.178H1185.12V181.615Z" fill="#96C4CC"/>
</g>
<g style="mix-blend-mode:overlay">
<path d="M1185.12 208.146H1165.75V200.631H1185.12V208.146Z" fill="#96C4CC"/>
</g>
<g style="mix-blend-mode:overlay">
<path d="M1185.12 234.6H1165.75V227.085H1185.12V234.6Z" fill="#96C4CC"/>
</g>
<g style="mix-blend-mode:overlay">
<path d="M1185.12 261.052H1165.75V253.614H1185.12V261.052Z" fill="#96C4CC"/>
</g>
<g style="mix-blend-mode:overlay">
<path d="M1185.12 287.583H1165.75V280.069H1185.12V287.583Z" fill="#96C4CC"/>
</g>
<g style="mix-blend-mode:overlay">
<path d="M1185.12 314.036H1165.75V306.521H1185.12V314.036Z" fill="#96C4CC"/>
</g>
<g style="mix-blend-mode:overlay">
<path d="M1185.12 340.489H1165.75V333.052H1185.12V340.489Z" fill="#96C4CC"/>
</g>
<g style="mix-blend-mode:overlay">
<path d="M1165.75 75.7257H1127.61V68.2881H1165.75V75.7257Z" fill="#ADD2DB"/>
</g>
<g style="mix-blend-mode:overlay">
<path d="M1165.75 102.178H1127.61V94.7407H1165.75V102.178Z" fill="#ADD2DB"/>
</g>
<g style="mix-blend-mode:overlay">
<path d="M1165.75 128.71H1127.61V121.195H1165.75V128.71Z" fill="#ADD2DB"/>
</g>
<g style="mix-blend-mode:overlay">
<path d="M1165.75 155.162H1127.61V147.724H1165.75V155.162Z" fill="#ADD2DB"/>
</g>
<g style="mix-blend-mode:overlay">
<path d="M1165.75 181.615H1127.61V174.178H1165.75V181.615Z" fill="#ADD2DB"/>
</g>
<g style="mix-blend-mode:overlay">
<path d="M1165.75 208.146H1127.61V200.631H1165.75V208.146Z" fill="#ADD2DB"/>
</g>
<g style="mix-blend-mode:overlay">
<path d="M1165.75 234.6H1127.61V227.085H1165.75V234.6Z" fill="#ADD2DB"/>
</g>
<g style="mix-blend-mode:overlay">
<path d="M1165.75 261.052H1127.61V253.614H1165.75V261.052Z" fill="#ADD2DB"/>
</g>
<g style="mix-blend-mode:overlay">
<path d="M1165.75 287.583H1127.61V280.069H1165.75V287.583Z" fill="#ADD2DB"/>
</g>
<g style="mix-blend-mode:overlay">
<path d="M1165.75 314.036H1127.61V306.521H1165.75V314.036Z" fill="#ADD2DB"/>
</g>
<g style="mix-blend-mode:overlay">
<path d="M1165.75 340.489H1127.61V333.052H1165.75V340.489Z" fill="#ADD2DB"/>
</g>
<g style="mix-blend-mode:overlay">
<path d="M1165.75 367.019H1127.61V359.505H1165.75V367.019Z" fill="#ADD2DB"/>
</g>
<g style="mix-blend-mode:overlay">
<path d="M1116.47 75.7257H1078.33V68.2881H1116.47V75.7257Z" fill="#ADD2DB"/>
</g>
<g style="mix-blend-mode:overlay">
<path d="M1116.47 102.178H1078.33V94.7407H1116.47V102.178Z" fill="#ADD2DB"/>
</g>
<g style="mix-blend-mode:overlay">
<path d="M1116.47 128.71H1078.33V121.195H1116.47V128.71Z" fill="#ADD2DB"/>
</g>
<g style="mix-blend-mode:overlay">
<path d="M1116.47 155.162H1078.33V147.724H1116.47V155.162Z" fill="#ADD2DB"/>
</g>
<g style="mix-blend-mode:overlay">
<path d="M1116.47 181.615H1078.33V174.178H1116.47V181.615Z" fill="#ADD2DB"/>
</g>
<g style="mix-blend-mode:overlay">
<path d="M1116.47 208.146H1078.33V200.631H1116.47V208.146Z" fill="#ADD2DB"/>
</g>
<g style="mix-blend-mode:overlay">
<path d="M1116.47 234.6H1078.33V227.085H1116.47V234.6Z" fill="#ADD2DB"/>
</g>
<g style="mix-blend-mode:overlay">
<path d="M1116.47 261.052H1078.33V253.614H1116.47V261.052Z" fill="#ADD2DB"/>
</g>
<g style="mix-blend-mode:overlay">
<path d="M1116.47 287.583H1078.33V280.069H1116.47V287.583Z" fill="#ADD2DB"/>
</g>
<g style="mix-blend-mode:overlay">
<path d="M1116.47 314.036H1078.33V306.521H1116.47V314.036Z" fill="#ADD2DB"/>
</g>
<g style="mix-blend-mode:overlay">
<path d="M1116.47 340.489H1078.33V333.052H1116.47V340.489Z" fill="#ADD2DB"/>
</g>
<g style="mix-blend-mode:overlay">
<path d="M1116.47 367.019H1078.33V359.505H1116.47V367.019Z" fill="#ADD2DB"/>
</g>
<g style="mix-blend-mode:overlay">
<path d="M1185.12 367.02H1165.75V359.506H1185.12V367.02Z" fill="#96C4CC"/>
</g>
<path d="M919.851 391.632H871.767V79.9419H919.851V391.632Z" fill="#ADD2DB"/>
<path d="M933.05 391.632H919.85V79.9419H933.05V391.632Z" fill="#96C4CC"/>
<g style="mix-blend-mode:overlay">
<path d="M929.278 99.8784H919.85V92.9775H929.278V99.8784Z" fill="#96C4CC"/>
</g>
<g style="mix-blend-mode:overlay">
<path d="M929.278 124.337H919.85V117.437H929.278V124.337Z" fill="#96C4CC"/>
</g>
<g style="mix-blend-mode:overlay">
<path d="M929.278 148.799H919.85V141.822H929.278V148.799Z" fill="#96C4CC"/>
</g>
<g style="mix-blend-mode:overlay">
<path d="M929.278 173.258H919.85V166.281H929.278V173.258Z" fill="#96C4CC"/>
</g>
<g style="mix-blend-mode:overlay">
<path d="M929.278 197.641H919.85V190.74H929.278V197.641Z" fill="#96C4CC"/>
</g>
<g style="mix-blend-mode:overlay">
<path d="M929.278 222.101H919.85V215.2H929.278V222.101Z" fill="#96C4CC"/>
</g>
<g style="mix-blend-mode:overlay">
<path d="M929.278 246.561H919.85V239.66H929.278V246.561Z" fill="#96C4CC"/>
</g>
<g style="mix-blend-mode:overlay">
<path d="M929.278 271.021H919.85V264.12H929.278V271.021Z" fill="#96C4CC"/>
</g>
<g style="mix-blend-mode:overlay">
<path d="M929.278 295.48H919.85V288.58H929.278V295.48Z" fill="#96C4CC"/>
</g>
<g style="mix-blend-mode:overlay">
<path d="M929.278 319.94H919.85V313.039H929.278V319.94Z" fill="#96C4CC"/>
</g>
<g style="mix-blend-mode:overlay">
<path d="M929.278 344.4H919.85V337.499H929.278V344.4Z" fill="#96C4CC"/>
</g>
<g style="mix-blend-mode:overlay">
<path d="M919.851 99.8784H901.251V92.9775H919.851V99.8784Z" fill="#ADD2DB"/>
</g>
<g style="mix-blend-mode:overlay">
<path d="M919.851 124.337H901.251V117.437H919.851V124.337Z" fill="#ADD2DB"/>
</g>
<g style="mix-blend-mode:overlay">
<path d="M919.851 148.799H901.251V141.822H919.851V148.799Z" fill="#ADD2DB"/>
</g>
<g style="mix-blend-mode:overlay">
<path d="M919.851 173.258H901.251V166.281H919.851V173.258Z" fill="#ADD2DB"/>
</g>
<g style="mix-blend-mode:overlay">
<path d="M919.851 197.641H901.251V190.74H919.851V197.641Z" fill="#ADD2DB"/>
</g>
<g style="mix-blend-mode:overlay">
<path d="M919.851 222.101H901.251V215.2H919.851V222.101Z" fill="#ADD2DB"/>
</g>
<g style="mix-blend-mode:overlay">
<path d="M919.851 246.561H901.251V239.66H919.851V246.561Z" fill="#ADD2DB"/>
</g>
<g style="mix-blend-mode:overlay">
<path d="M919.851 271.021H901.251V264.12H919.851V271.021Z" fill="#ADD2DB"/>
</g>
<g style="mix-blend-mode:overlay">
<path d="M919.851 295.48H901.251V288.58H919.851V295.48Z" fill="#ADD2DB"/>
</g>
<g style="mix-blend-mode:overlay">
<path d="M919.851 319.94H901.251V313.039H919.851V319.94Z" fill="#ADD2DB"/>
</g>
<g style="mix-blend-mode:overlay">
<path d="M919.851 344.4H901.251V337.499H919.851V344.4Z" fill="#ADD2DB"/>
</g>
<g style="mix-blend-mode:overlay">
<path d="M919.851 368.86H901.251V361.959H919.851V368.86Z" fill="#ADD2DB"/>
</g>
<g style="mix-blend-mode:overlay">
<path d="M895.766 99.8784H877.252V92.9775H895.766V99.8784Z" fill="#ADD2DB"/>
</g>
<g style="mix-blend-mode:overlay">
<path d="M895.766 124.337H877.252V117.437H895.766V124.337Z" fill="#ADD2DB"/>
</g>
<g style="mix-blend-mode:overlay">
<path d="M895.766 148.799H877.252V141.822H895.766V148.799Z" fill="#ADD2DB"/>
</g>
<g style="mix-blend-mode:overlay">
<path d="M895.766 173.258H877.252V166.281H895.766V173.258Z" fill="#ADD2DB"/>
</g>
<g style="mix-blend-mode:overlay">
<path d="M895.766 197.641H877.252V190.74H895.766V197.641Z" fill="#ADD2DB"/>
</g>
<g style="mix-blend-mode:overlay">
<path d="M895.766 222.101H877.252V215.2H895.766V222.101Z" fill="#ADD2DB"/>
</g>
<g style="mix-blend-mode:overlay">
<path d="M895.766 246.561H877.252V239.66H895.766V246.561Z" fill="#ADD2DB"/>
</g>
<g style="mix-blend-mode:overlay">
<path d="M895.766 271.021H877.252V264.12H895.766V271.021Z" fill="#ADD2DB"/>
</g>
<g style="mix-blend-mode:overlay">
<path d="M895.766 295.48H877.252V288.58H895.766V295.48Z" fill="#ADD2DB"/>
</g>
<g style="mix-blend-mode:overlay">
<path d="M895.766 319.94H877.252V313.039H895.766V319.94Z" fill="#ADD2DB"/>
</g>
<g style="mix-blend-mode:overlay">
<path d="M895.766 344.4H877.252V337.499H895.766V344.4Z" fill="#ADD2DB"/>
</g>
<g style="mix-blend-mode:overlay">
<path d="M895.766 368.86H877.252V361.959H895.766V368.86Z" fill="#ADD2DB"/>
</g>
<g style="mix-blend-mode:overlay">
<path d="M929.278 368.86H919.85V361.959H929.278V368.86Z" fill="#96C4CC"/>
</g>
<path d="M286.452 391.632H238.454V79.9419H286.452V391.632Z" fill="#ADD2DB"/>
<path d="M299.651 391.632H286.452V79.9419H299.651V391.632Z" fill="#96C4CC"/>
<g style="mix-blend-mode:overlay">
<path d="M295.88 99.8784H286.537V92.9775H295.88V99.8784Z" fill="#96C4CC"/>
</g>
<g style="mix-blend-mode:overlay">
<path d="M295.88 124.337H286.537V117.437H295.88V124.337Z" fill="#96C4CC"/>
</g>
<g style="mix-blend-mode:overlay">
<path d="M295.88 148.799H286.537V141.822H295.88V148.799Z" fill="#96C4CC"/>
</g>
<g style="mix-blend-mode:overlay">
<path d="M295.88 173.258H286.537V166.281H295.88V173.258Z" fill="#96C4CC"/>
</g>
<g style="mix-blend-mode:overlay">
<path d="M295.88 197.641H286.537V190.74H295.88V197.641Z" fill="#96C4CC"/>
</g>
<g style="mix-blend-mode:overlay">
<path d="M295.88 222.101H286.537V215.2H295.88V222.101Z" fill="#96C4CC"/>
</g>
<g style="mix-blend-mode:overlay">
<path d="M295.88 246.561H286.537V239.66H295.88V246.561Z" fill="#96C4CC"/>
</g>
<g style="mix-blend-mode:overlay">
<path d="M295.88 271.021H286.537V264.12H295.88V271.021Z" fill="#96C4CC"/>
</g>
<g style="mix-blend-mode:overlay">
<path d="M295.88 295.48H286.537V288.58H295.88V295.48Z" fill="#96C4CC"/>
</g>
<g style="mix-blend-mode:overlay">
<path d="M295.88 319.94H286.537V313.039H295.88V319.94Z" fill="#96C4CC"/>
</g>
<g style="mix-blend-mode:overlay">
<path d="M295.88 344.4H286.537V337.499H295.88V344.4Z" fill="#96C4CC"/>
</g>
<g style="mix-blend-mode:overlay">
<path d="M286.538 99.8784H267.938V92.9775H286.538V99.8784Z" fill="#ADD2DB"/>
</g>
<g style="mix-blend-mode:overlay">
<path d="M286.538 124.337H267.938V117.437H286.538V124.337Z" fill="#ADD2DB"/>
</g>
<g style="mix-blend-mode:overlay">
<path d="M286.538 148.799H267.938V141.822H286.538V148.799Z" fill="#ADD2DB"/>
</g>
<g style="mix-blend-mode:overlay">
<path d="M286.538 173.258H267.938V166.281H286.538V173.258Z" fill="#ADD2DB"/>
</g>
<g style="mix-blend-mode:overlay">
<path d="M286.538 197.641H267.938V190.74H286.538V197.641Z" fill="#ADD2DB"/>
</g>
<g style="mix-blend-mode:overlay">
<path d="M286.538 222.101H267.938V215.2H286.538V222.101Z" fill="#ADD2DB"/>
</g>
<g style="mix-blend-mode:overlay">
<path d="M286.538 246.561H267.938V239.66H286.538V246.561Z" fill="#ADD2DB"/>
</g>
<g style="mix-blend-mode:overlay">
<path d="M286.538 271.021H267.938V264.12H286.538V271.021Z" fill="#ADD2DB"/>
</g>
<g style="mix-blend-mode:overlay">
<path d="M286.538 295.48H267.938V288.58H286.538V295.48Z" fill="#ADD2DB"/>
</g>
<g style="mix-blend-mode:overlay">
<path d="M286.538 319.94H267.938V313.039H286.538V319.94Z" fill="#ADD2DB"/>
</g>
<g style="mix-blend-mode:overlay">
<path d="M286.538 344.4H267.938V337.499H286.538V344.4Z" fill="#ADD2DB"/>
</g>
<g style="mix-blend-mode:overlay">
<path d="M286.538 368.86H267.938V361.959H286.538V368.86Z" fill="#ADD2DB"/>
</g>
<g style="mix-blend-mode:overlay">
<path d="M262.453 99.8784H243.854V92.9775H262.453V99.8784Z" fill="#ADD2DB"/>
</g>
<g style="mix-blend-mode:overlay">
<path d="M262.453 124.337H243.854V117.437H262.453V124.337Z" fill="#ADD2DB"/>
</g>
<g style="mix-blend-mode:overlay">
<path d="M262.453 148.799H243.854V141.822H262.453V148.799Z" fill="#ADD2DB"/>
</g>
<g style="mix-blend-mode:overlay">
<path d="M262.453 173.258H243.854V166.281H262.453V173.258Z" fill="#ADD2DB"/>
</g>
<g style="mix-blend-mode:overlay">
<path d="M262.453 197.641H243.854V190.74H262.453V197.641Z" fill="#ADD2DB"/>
</g>
<g style="mix-blend-mode:overlay">
<path d="M262.453 222.101H243.854V215.2H262.453V222.101Z" fill="#ADD2DB"/>
</g>
<g style="mix-blend-mode:overlay">
<path d="M262.453 246.561H243.854V239.66H262.453V246.561Z" fill="#ADD2DB"/>
</g>
<g style="mix-blend-mode:overlay">
<path d="M262.453 271.021H243.854V264.12H262.453V271.021Z" fill="#ADD2DB"/>
</g>
<g style="mix-blend-mode:overlay">
<path d="M262.453 295.48H243.854V288.58H262.453V295.48Z" fill="#ADD2DB"/>
</g>
<g style="mix-blend-mode:overlay">
<path d="M262.453 319.94H243.854V313.039H262.453V319.94Z" fill="#ADD2DB"/>
</g>
<g style="mix-blend-mode:overlay">
<path d="M262.453 344.4H243.854V337.499H262.453V344.4Z" fill="#ADD2DB"/>
</g>
<g style="mix-blend-mode:overlay">
<path d="M262.453 368.86H243.854V361.959H262.453V368.86Z" fill="#ADD2DB"/>
</g>
<g style="mix-blend-mode:overlay">
<path d="M295.88 368.86H286.537V361.959H295.88V368.86Z" fill="#96C4CC"/>
</g>
<path d="M1248.64 391.632H1210.84V79.9419H1248.64V391.632Z" fill="#ADD2DB"/>
<path d="M1258.92 391.632H1248.63V79.9419H1258.92V391.632Z" fill="#96C4CC"/>
<g style="mix-blend-mode:overlay">
<path d="M1256.01 99.8784H1248.63V92.9775H1256.01V99.8784Z" fill="#96C4CC"/>
</g>
<g style="mix-blend-mode:overlay">
<path d="M1256.01 124.337H1248.63V117.437H1256.01V124.337Z" fill="#96C4CC"/>
</g>
<g style="mix-blend-mode:overlay">
<path d="M1256.01 148.799H1248.63V141.822H1256.01V148.799Z" fill="#96C4CC"/>
</g>
<g style="mix-blend-mode:overlay">
<path d="M1256.01 173.258H1248.63V166.281H1256.01V173.258Z" fill="#96C4CC"/>
</g>
<g style="mix-blend-mode:overlay">
<path d="M1256.01 197.641H1248.63V190.74H1256.01V197.641Z" fill="#96C4CC"/>
</g>
<g style="mix-blend-mode:overlay">
<path d="M1256.01 222.101H1248.63V215.2H1256.01V222.101Z" fill="#96C4CC"/>
</g>
<g style="mix-blend-mode:overlay">
<path d="M1256.01 246.561H1248.63V239.66H1256.01V246.561Z" fill="#96C4CC"/>
</g>
<g style="mix-blend-mode:overlay">
<path d="M1256.01 271.021H1248.63V264.12H1256.01V271.021Z" fill="#96C4CC"/>
</g>
<g style="mix-blend-mode:overlay">
<path d="M1256.01 295.48H1248.63V288.58H1256.01V295.48Z" fill="#96C4CC"/>
</g>
<g style="mix-blend-mode:overlay">
<path d="M1256.01 319.94H1248.63V313.039H1256.01V319.94Z" fill="#96C4CC"/>
</g>
<g style="mix-blend-mode:overlay">
<path d="M1256.01 344.4H1248.63V337.499H1256.01V344.4Z" fill="#96C4CC"/>
</g>
<g style="mix-blend-mode:overlay">
<path d="M1248.63 99.8784H1234.06V92.9775H1248.63V99.8784Z" fill="#ADD2DB"/>
</g>
<g style="mix-blend-mode:overlay">
<path d="M1248.63 124.337H1234.06V117.437H1248.63V124.337Z" fill="#ADD2DB"/>
</g>
<g style="mix-blend-mode:overlay">
<path d="M1248.63 148.799H1234.06V141.822H1248.63V148.799Z" fill="#ADD2DB"/>
</g>
<g style="mix-blend-mode:overlay">
<path d="M1248.63 173.258H1234.06V166.281H1248.63V173.258Z" fill="#ADD2DB"/>
</g>
<g style="mix-blend-mode:overlay">
<path d="M1248.63 197.641H1234.06V190.74H1248.63V197.641Z" fill="#ADD2DB"/>
</g>
<g style="mix-blend-mode:overlay">
<path d="M1248.63 222.101H1234.06V215.2H1248.63V222.101Z" fill="#ADD2DB"/>
</g>
<g style="mix-blend-mode:overlay">
<path d="M1248.63 246.561H1234.06V239.66H1248.63V246.561Z" fill="#ADD2DB"/>
</g>
<g style="mix-blend-mode:overlay">
<path d="M1248.63 271.021H1234.06V264.12H1248.63V271.021Z" fill="#ADD2DB"/>
</g>
<g style="mix-blend-mode:overlay">
<path d="M1248.63 295.48H1234.06V288.58H1248.63V295.48Z" fill="#ADD2DB"/>
</g>
<g style="mix-blend-mode:overlay">
<path d="M1248.63 319.94H1234.06V313.039H1248.63V319.94Z" fill="#ADD2DB"/>
</g>
<g style="mix-blend-mode:overlay">
<path d="M1248.63 344.4H1234.06V337.499H1248.63V344.4Z" fill="#ADD2DB"/>
</g>
<g style="mix-blend-mode:overlay">
<path d="M1248.63 368.86H1234.06V361.959H1248.63V368.86Z" fill="#ADD2DB"/>
</g>
<g style="mix-blend-mode:overlay">
<path d="M1229.78 99.8784H1215.12V92.9775H1229.78V99.8784Z" fill="#ADD2DB"/>
</g>
<g style="mix-blend-mode:overlay">
<path d="M1229.78 124.337H1215.12V117.437H1229.78V124.337Z" fill="#ADD2DB"/>
</g>
<g style="mix-blend-mode:overlay">
<path d="M1229.78 148.799H1215.12V141.822H1229.78V148.799Z" fill="#ADD2DB"/>
</g>
<g style="mix-blend-mode:overlay">
<path d="M1229.78 173.258H1215.12V166.281H1229.78V173.258Z" fill="#ADD2DB"/>
</g>
<g style="mix-blend-mode:overlay">
<path d="M1229.78 197.641H1215.12V190.74H1229.78V197.641Z" fill="#ADD2DB"/>
</g>
<g style="mix-blend-mode:overlay">
<path d="M1229.78 222.101H1215.12V215.2H1229.78V222.101Z" fill="#ADD2DB"/>
</g>
<g style="mix-blend-mode:overlay">
<path d="M1229.78 246.561H1215.12V239.66H1229.78V246.561Z" fill="#ADD2DB"/>
</g>
<g style="mix-blend-mode:overlay">
<path d="M1229.78 271.021H1215.12V264.12H1229.78V271.021Z" fill="#ADD2DB"/>
</g>
<g style="mix-blend-mode:overlay">
<path d="M1229.78 295.48H1215.12V288.58H1229.78V295.48Z" fill="#ADD2DB"/>
</g>
<g style="mix-blend-mode:overlay">
<path d="M1229.78 319.94H1215.12V313.039H1229.78V319.94Z" fill="#ADD2DB"/>
</g>
<g style="mix-blend-mode:overlay">
<path d="M1229.78 344.4H1215.12V337.499H1229.78V344.4Z" fill="#ADD2DB"/>
</g>
<g style="mix-blend-mode:overlay">
<path d="M1229.78 368.86H1215.12V361.959H1229.78V368.86Z" fill="#ADD2DB"/>
</g>
<g style="mix-blend-mode:overlay">
<path d="M1256.01 368.86H1248.63V361.959H1256.01V368.86Z" fill="#96C4CC"/>
</g>
<path d="M499.013 391.632H461.301V79.9419H499.013V391.632Z" fill="#ADD2DB"/>
<path d="M509.384 391.632H499.013V79.9419H509.384V391.632Z" fill="#96C4CC"/>
<g style="mix-blend-mode:overlay">
<path d="M506.47 99.8784H499.099V92.9775H506.47V99.8784Z" fill="#96C4CC"/>
</g>
<g style="mix-blend-mode:overlay">
<path d="M506.47 124.337H499.099V117.437H506.47V124.337Z" fill="#96C4CC"/>
</g>
<g style="mix-blend-mode:overlay">
<path d="M506.47 148.799H499.099V141.822H506.47V148.799Z" fill="#96C4CC"/>
</g>
<g style="mix-blend-mode:overlay">
<path d="M506.47 173.258H499.099V166.281H506.47V173.258Z" fill="#96C4CC"/>
</g>
<g style="mix-blend-mode:overlay">
<path d="M506.47 197.641H499.099V190.74H506.47V197.641Z" fill="#96C4CC"/>
</g>
<g style="mix-blend-mode:overlay">
<path d="M506.47 222.101H499.099V215.2H506.47V222.101Z" fill="#96C4CC"/>
</g>
<g style="mix-blend-mode:overlay">
<path d="M506.47 246.561H499.099V239.66H506.47V246.561Z" fill="#96C4CC"/>
</g>
<g style="mix-blend-mode:overlay">
<path d="M506.47 271.021H499.099V264.12H506.47V271.021Z" fill="#96C4CC"/>
</g>
<g style="mix-blend-mode:overlay">
<path d="M506.47 295.48H499.099V288.58H506.47V295.48Z" fill="#96C4CC"/>
</g>
<g style="mix-blend-mode:overlay">
<path d="M506.47 319.94H499.099V313.039H506.47V319.94Z" fill="#96C4CC"/>
</g>
<g style="mix-blend-mode:overlay">
<path d="M506.47 344.4H499.099V337.499H506.47V344.4Z" fill="#96C4CC"/>
</g>
<g style="mix-blend-mode:overlay">
<path d="M499.099 99.8784H484.442V92.9775H499.099V99.8784Z" fill="#ADD2DB"/>
</g>
<g style="mix-blend-mode:overlay">
<path d="M499.099 124.337H484.442V117.437H499.099V124.337Z" fill="#ADD2DB"/>
</g>
<g style="mix-blend-mode:overlay">
<path d="M499.099 148.799H484.442V141.822H499.099V148.799Z" fill="#ADD2DB"/>
</g>
<g style="mix-blend-mode:overlay">
<path d="M499.099 173.258H484.442V166.281H499.099V173.258Z" fill="#ADD2DB"/>
</g>
<g style="mix-blend-mode:overlay">
<path d="M499.099 197.641H484.442V190.74H499.099V197.641Z" fill="#ADD2DB"/>
</g>
<g style="mix-blend-mode:overlay">
<path d="M499.099 222.101H484.442V215.2H499.099V222.101Z" fill="#ADD2DB"/>
</g>
<g style="mix-blend-mode:overlay">
<path d="M499.099 246.561H484.442V239.66H499.099V246.561Z" fill="#ADD2DB"/>
</g>
<g style="mix-blend-mode:overlay">
<path d="M499.099 271.021H484.442V264.12H499.099V271.021Z" fill="#ADD2DB"/>
</g>
<g style="mix-blend-mode:overlay">
<path d="M499.099 295.48H484.442V288.58H499.099V295.48Z" fill="#ADD2DB"/>
</g>
<g style="mix-blend-mode:overlay">
<path d="M499.099 319.94H484.442V313.039H499.099V319.94Z" fill="#ADD2DB"/>
</g>
<g style="mix-blend-mode:overlay">
<path d="M499.099 344.4H484.442V337.499H499.099V344.4Z" fill="#ADD2DB"/>
</g>
<g style="mix-blend-mode:overlay">
<path d="M499.099 368.86H484.442V361.959H499.099V368.86Z" fill="#ADD2DB"/>
</g>
<g style="mix-blend-mode:overlay">
<path d="M480.157 99.8784H465.586V92.9775H480.157V99.8784Z" fill="#ADD2DB"/>
</g>
<g style="mix-blend-mode:overlay">
<path d="M480.157 124.337H465.586V117.437H480.157V124.337Z" fill="#ADD2DB"/>
</g>
<g style="mix-blend-mode:overlay">
<path d="M480.157 148.799H465.586V141.822H480.157V148.799Z" fill="#ADD2DB"/>
</g>
<g style="mix-blend-mode:overlay">
<path d="M480.157 173.258H465.586V166.281H480.157V173.258Z" fill="#ADD2DB"/>
</g>
<g style="mix-blend-mode:overlay">
<path d="M480.157 197.641H465.586V190.74H480.157V197.641Z" fill="#ADD2DB"/>
</g>
<g style="mix-blend-mode:overlay">
<path d="M480.157 222.101H465.586V215.2H480.157V222.101Z" fill="#ADD2DB"/>
</g>
<g style="mix-blend-mode:overlay">
<path d="M480.157 246.561H465.586V239.66H480.157V246.561Z" fill="#ADD2DB"/>
</g>
<g style="mix-blend-mode:overlay">
<path d="M480.157 271.021H465.586V264.12H480.157V271.021Z" fill="#ADD2DB"/>
</g>
<g style="mix-blend-mode:overlay">
<path d="M480.157 295.48H465.586V288.58H480.157V295.48Z" fill="#ADD2DB"/>
</g>
<g style="mix-blend-mode:overlay">
<path d="M480.157 319.94H465.586V313.039H480.157V319.94Z" fill="#ADD2DB"/>
</g>
<g style="mix-blend-mode:overlay">
<path d="M480.157 344.4H465.586V337.499H480.157V344.4Z" fill="#ADD2DB"/>
</g>
<g style="mix-blend-mode:overlay">
<path d="M480.157 368.86H465.586V361.959H480.157V368.86Z" fill="#ADD2DB"/>
</g>
<g style="mix-blend-mode:overlay">
<path d="M506.47 368.86H499.099V361.959H506.47V368.86Z" fill="#96C4CC"/>
</g>
<path d="M1406.94 391.632H1330.23V117.437H1406.94V391.632Z" fill="#ADD2DB"/>
<path d="M1427.94 391.632H1406.94V117.437H1427.94V391.632Z" fill="#96C4CC"/>
<g style="mix-blend-mode:overlay">
<path d="M1422.03 134.92H1406.94V128.862H1422.03V134.92Z" fill="#96C4CC"/>
</g>
<g style="mix-blend-mode:overlay">
<path d="M1422.03 156.466H1406.94V150.409H1422.03V156.466Z" fill="#96C4CC"/>
</g>
<g style="mix-blend-mode:overlay">
<path d="M1422.03 177.934H1406.94V171.877H1422.03V177.934Z" fill="#96C4CC"/>
</g>
<g style="mix-blend-mode:overlay">
<path d="M1422.03 199.481H1406.94V193.424H1422.03V199.481Z" fill="#96C4CC"/>
</g>
<g style="mix-blend-mode:overlay">
<path d="M1422.03 221.027H1406.94V214.893H1422.03V221.027Z" fill="#96C4CC"/>
</g>
<g style="mix-blend-mode:overlay">
<path d="M1422.03 242.497H1406.94V236.44H1422.03V242.497Z" fill="#96C4CC"/>
</g>
<g style="mix-blend-mode:overlay">
<path d="M1422.03 264.042H1406.94V257.985H1422.03V264.042Z" fill="#96C4CC"/>
</g>
<g style="mix-blend-mode:overlay">
<path d="M1422.03 285.513H1406.94V279.455H1422.03V285.513Z" fill="#96C4CC"/>
</g>
<g style="mix-blend-mode:overlay">
<path d="M1422.03 307.058H1406.94V301.001H1422.03V307.058Z" fill="#96C4CC"/>
</g>
<g style="mix-blend-mode:overlay">
<path d="M1422.03 328.604H1406.94V322.47H1422.03V328.604Z" fill="#96C4CC"/>
</g>
<g style="mix-blend-mode:overlay">
<path d="M1422.03 350.074H1406.94V344.016H1422.03V350.074Z" fill="#96C4CC"/>
</g>
<g style="mix-blend-mode:overlay">
<path d="M1406.94 134.92H1377.29V128.862H1406.94V134.92Z" fill="#ADD2DB"/>
</g>
<g style="mix-blend-mode:overlay">
<path d="M1406.94 156.466H1377.29V150.409H1406.94V156.466Z" fill="#ADD2DB"/>
</g>
<g style="mix-blend-mode:overlay">
<path d="M1406.94 177.934H1377.29V171.877H1406.94V177.934Z" fill="#ADD2DB"/>
</g>
<g style="mix-blend-mode:overlay">
<path d="M1406.94 199.481H1377.29V193.424H1406.94V199.481Z" fill="#ADD2DB"/>
</g>
<g style="mix-blend-mode:overlay">
<path d="M1406.94 221.027H1377.29V214.893H1406.94V221.027Z" fill="#ADD2DB"/>
</g>
<g style="mix-blend-mode:overlay">
<path d="M1406.94 242.496H1377.29V236.438H1406.94V242.496Z" fill="#ADD2DB"/>
</g>
<g style="mix-blend-mode:overlay">
<path d="M1406.94 264.042H1377.29V257.985H1406.94V264.042Z" fill="#ADD2DB"/>
</g>
<g style="mix-blend-mode:overlay">
<path d="M1406.94 285.513H1377.29V279.455H1406.94V285.513Z" fill="#ADD2DB"/>
</g>
<g style="mix-blend-mode:overlay">
<path d="M1406.94 307.058H1377.29V301.001H1406.94V307.058Z" fill="#ADD2DB"/>
</g>
<g style="mix-blend-mode:overlay">
<path d="M1406.94 328.604H1377.29V322.47H1406.94V328.604Z" fill="#ADD2DB"/>
</g>
<g style="mix-blend-mode:overlay">
<path d="M1406.94 350.074H1377.29V344.016H1406.94V350.074Z" fill="#ADD2DB"/>
</g>
<g style="mix-blend-mode:overlay">
<path d="M1406.94 371.62H1377.29V365.562H1406.94V371.62Z" fill="#ADD2DB"/>
</g>
<g style="mix-blend-mode:overlay">
<path d="M1368.54 134.92H1338.89V128.862H1368.54V134.92Z" fill="#ADD2DB"/>
</g>
<g style="mix-blend-mode:overlay">
<path d="M1368.54 156.466H1338.89V150.409H1368.54V156.466Z" fill="#ADD2DB"/>
</g>
<g style="mix-blend-mode:overlay">
<path d="M1368.54 177.934H1338.89V171.877H1368.54V177.934Z" fill="#ADD2DB"/>
</g>
<g style="mix-blend-mode:overlay">
<path d="M1368.54 199.481H1338.89V193.424H1368.54V199.481Z" fill="#ADD2DB"/>
</g>
<g style="mix-blend-mode:overlay">
<path d="M1368.54 221.027H1338.89V214.893H1368.54V221.027Z" fill="#ADD2DB"/>
</g>
<g style="mix-blend-mode:overlay">
<path d="M1368.54 242.496H1338.89V236.438H1368.54V242.496Z" fill="#ADD2DB"/>
</g>
<g style="mix-blend-mode:overlay">
<path d="M1368.54 264.042H1338.89V257.985H1368.54V264.042Z" fill="#ADD2DB"/>
</g>
<g style="mix-blend-mode:overlay">
<path d="M1368.54 285.513H1338.89V279.455H1368.54V285.513Z" fill="#ADD2DB"/>
</g>
<g style="mix-blend-mode:overlay">
<path d="M1368.54 307.058H1338.89V301.001H1368.54V307.058Z" fill="#ADD2DB"/>
</g>
<g style="mix-blend-mode:overlay">
<path d="M1368.54 328.604H1338.89V322.47H1368.54V328.604Z" fill="#ADD2DB"/>
</g>
<g style="mix-blend-mode:overlay">
<path d="M1368.54 350.074H1338.89V344.016H1368.54V350.074Z" fill="#ADD2DB"/>
</g>
<g style="mix-blend-mode:overlay">
<path d="M1368.54 371.62H1338.89V365.562H1368.54V371.62Z" fill="#ADD2DB"/>
</g>
<g style="mix-blend-mode:overlay">
<path d="M1422.03 371.62H1406.94V365.562H1422.03V371.62Z" fill="#96C4CC"/>
</g>
</g>
<path d="M1555.25 320.654H114.901L0.240234 448.181H1677.29L1555.25 320.654Z" fill="#F0F7FD"/>
<path d="M997.455 348.606C997.455 342.323 995.869 336.346 993.063 331.161H1018.5C1018.5 331.161 1026.61 344.58 1018.32 356.596H995.991C996.662 353.79 997.455 351.655 997.455 348.606Z" fill="#2C2D2C"/>
<path d="M914.502 202.218C930.727 202.218 974.155 273.582 974.155 273.582C974.155 273.582 1018.5 286.33 1018.5 294.198C1018.5 302.066 1018.5 331.161 1018.5 331.161H993.063C986.842 319.694 974.704 311.886 960.736 311.886C940.486 311.886 924.017 328.355 924.017 348.605C924.017 351.35 924.322 354.034 924.932 356.596H865.096V202.218C865.096 202.218 898.338 202.218 914.502 202.218Z" fill="#F7C22B"/>
<path d="M924.017 213.685H930.91C951.77 235.216 974.155 273.581 974.155 273.581C963.298 273.581 951.343 261.687 951.343 261.687L924.017 213.685Z" fill="#4093C1"/>
<path d="M888.031 288.769H903.279V282.792H888.031V288.769Z" fill="#3F3D3E"/>
<path d="M654.665 334.821H865.401V180.443H654.665V334.821Z" fill="#E2A02B"/>
<path d="M675.037 334.82H865.096V348.605H675.037V334.82Z" fill="#2C2C2C"/>
<path d="M918.589 213.685H872.66V265.774H915.112L919.199 273.581H941.767V258.211L918.589 213.685Z" fill="#4093C1"/>
<path d="M924.017 213.685H930.91C951.77 235.216 974.155 273.581 974.155 273.581C963.298 273.581 951.343 261.687 951.343 261.687L924.017 213.685Z" fill="#4093C1"/>
<path d="M872.66 265.774H872.843L922.798 221.675L918.589 213.685H918.162L872.66 256.991V265.774Z" fill="#40A6D3"/>
<path d="M937.192 249.428L916.82 269.007L919.199 273.582H925.725L940.852 256.442L937.192 249.428Z" fill="#40A6D3"/>
<path d="M926.946 229.665L886.445 265.774H897.424L930.849 237.228L926.946 229.665Z" fill="#40A6D3"/>
<path d="M872.66 238.448V246.439L905.658 213.685H896.997L872.66 238.448Z" fill="#40A6D3"/>
<path d="M710.17 347.872C709.255 344.335 708.767 340.614 708.767 336.771C708.767 312.251 728.651 292.367 753.171 292.367C777.691 292.367 797.575 312.251 797.575 336.771C797.575 340.614 797.087 344.335 796.172 347.872H710.17Z" fill="#2C2D2C"/>
<path d="M712.488 341.042C712.488 318.596 730.725 300.419 753.171 300.419C775.617 300.419 793.855 318.596 793.855 341.042C793.855 363.549 775.617 381.725 753.171 381.725C730.725 381.725 712.488 363.549 712.488 341.042Z" fill="black"/>
<path d="M726.029 341.042C726.029 326.098 738.167 313.899 753.171 313.899C768.176 313.899 780.314 326.098 780.314 341.042C780.314 356.046 768.176 368.184 753.171 368.184C738.167 368.184 726.029 356.046 726.029 341.042Z" fill="#272828"/>
<path d="M740.606 341.043C740.606 334.15 746.218 328.539 753.171 328.539C760.064 328.539 765.675 334.15 765.675 341.043C765.675 347.996 760.064 353.607 753.171 353.607C746.218 353.607 740.606 347.996 740.606 341.043Z" fill="#C2CACC"/>
<path d="M754.879 333.234C754.879 334.21 754.147 335.003 753.171 335.003C752.195 335.003 751.402 334.21 751.402 333.234C751.402 332.258 752.195 331.526 753.171 331.526C754.147 331.526 754.879 332.258 754.879 333.234Z" fill="black"/>
<path d="M747.254 335.674C748.108 336.101 748.352 337.199 747.864 338.053C747.437 338.846 746.34 339.151 745.547 338.663C744.693 338.175 744.388 337.138 744.876 336.284C745.364 335.43 746.401 335.187 747.254 335.674Z" fill="black"/>
<path d="M745.547 343.481C746.34 342.993 747.437 343.298 747.864 344.091C748.352 344.945 748.108 345.982 747.254 346.47C746.401 346.958 745.364 346.653 744.876 345.86C744.388 345.006 744.693 343.969 745.547 343.481Z" fill="black"/>
<path d="M751.402 348.91C751.402 347.934 752.195 347.141 753.171 347.141C754.147 347.141 754.879 347.934 754.879 348.91C754.879 349.825 754.147 350.618 753.171 350.618C752.195 350.618 751.402 349.825 751.402 348.91Z" fill="black"/>
<path d="M759.088 346.47C758.234 345.982 757.929 344.945 758.417 344.091C758.905 343.298 759.942 342.993 760.796 343.481C761.649 343.969 761.893 345.006 761.466 345.86C760.978 346.653 759.881 346.958 759.088 346.47Z" fill="black"/>
<path d="M760.796 338.663C759.942 339.151 758.905 338.846 758.417 338.053C757.929 337.199 758.234 336.101 759.088 335.674C759.881 335.187 760.978 335.43 761.466 336.284C761.893 337.138 761.649 338.175 760.796 338.663Z" fill="black"/>
<path d="M918.223 356.596C917.308 353.058 916.82 349.337 916.82 345.556C916.82 321.036 936.704 301.151 961.224 301.151C985.744 301.151 1005.63 321.036 1005.63 345.556C1005.63 349.337 1005.14 353.058 1004.23 356.596H918.223Z" fill="#2C2D2C"/>
<path d="M924.811 345.555C924.811 325.427 941.096 309.141 961.224 309.141C981.292 309.141 997.577 325.427 997.577 345.555C997.577 365.622 981.292 381.908 961.224 381.908C941.096 381.908 924.811 365.622 924.811 345.555Z" fill="black"/>
<path d="M936.948 345.555C936.948 332.136 947.806 321.279 961.224 321.279C974.643 321.279 985.5 332.136 985.5 345.555C985.5 358.974 974.643 369.831 961.224 369.831C947.806 369.831 936.948 358.974 936.948 345.555Z" fill="#272828"/>
<path d="M950.001 345.555C950.001 339.334 955.003 334.332 961.225 334.332C967.385 334.332 972.448 339.334 972.448 345.555C972.448 351.716 967.385 356.778 961.225 356.778C955.003 356.778 950.001 351.716 950.001 345.555Z" fill="#C2CACC"/>
<path d="M962.749 338.541C962.749 339.395 962.078 340.066 961.225 340.066C960.371 340.066 959.639 339.395 959.639 338.541C959.639 337.687 960.371 336.955 961.225 336.955C962.078 336.955 962.749 337.687 962.749 338.541Z" fill="black"/>
<path d="M955.918 340.676C956.65 341.103 956.955 342.079 956.528 342.81C956.04 343.542 955.125 343.786 954.393 343.359C953.6 342.932 953.356 342.018 953.783 341.286C954.21 340.493 955.186 340.249 955.918 340.676Z" fill="black"/>
<path d="M954.393 347.69C955.125 347.263 956.04 347.507 956.528 348.239C956.955 348.971 956.65 349.947 955.918 350.374C955.186 350.801 954.21 350.557 953.783 349.825C953.356 349.093 953.6 348.117 954.393 347.69Z" fill="black"/>
<path d="M959.639 352.509C959.639 351.655 960.371 350.984 961.225 350.984C962.078 350.984 962.749 351.655 962.749 352.509C962.749 353.363 962.078 354.095 961.225 354.095C960.371 354.095 959.639 353.363 959.639 352.509Z" fill="black"/>
<path d="M966.47 350.374C965.738 349.947 965.494 348.971 965.921 348.239C966.348 347.507 967.324 347.263 968.056 347.69C968.788 348.117 969.032 349.093 968.605 349.825C968.178 350.557 967.263 350.801 966.47 350.374Z" fill="black"/>
<path d="M968.056 343.359C967.324 343.786 966.348 343.542 965.921 342.81C965.494 342.079 965.738 341.103 966.47 340.676C967.263 340.249 968.178 340.493 968.605 341.286C969.032 342.018 968.788 342.932 968.056 343.359Z" fill="black"/>
<path d="M1018.5 321.279H1003.86V305.848H1018.5V321.279Z" fill="#FEFEFE"/>
<path d="M1011.18 321.279H1002.88V304.567H1011.18V321.279Z" fill="#FF9966"/>
<path d="M921.333 338.542H865.096V356.596H921.333V338.542Z" fill="#2C2D2C"/>
<path d="M941.767 252.111C941.482 252.111 941.177 252.132 940.852 252.172V276.936C941.177 276.977 941.482 276.997 941.767 276.997C947.195 276.997 951.526 271.447 951.526 264.554C951.526 257.662 947.195 252.111 941.767 252.111Z" fill="#FFD15F"/>
<g style="mix-blend-mode:multiply">
<path d="M1215.12 443.452C1215.12 445.099 1176.63 446.44 1129.05 446.44C1081.54 446.44 1043.05 445.099 1043.05 443.452C1043.05 441.805 1081.54 440.463 1129.05 440.463C1176.63 440.463 1215.12 441.805 1215.12 443.452Z" fill="#DEE2E2"/>
</g>
<path d="M1135.82 224.298H1121.73V258.333H1135.82V224.298Z" fill="#E2B798"/>
<path d="M1118.01 236.558C1113.19 238.814 1102.89 240.583 1101.18 242.535C1098.98 245.036 1090.69 268.336 1088.74 273.337C1086.78 278.278 1094.23 284.195 1098.13 281.023C1102.09 277.851 1105.81 264.31 1105.81 264.31L1106.3 318.108H1128.75V244.609C1123.93 242.84 1120.27 239.302 1118.01 236.558Z" fill="#F7C22B"/>
<path d="M1118.01 236.558L1115.02 248.757L1124.66 263.334L1128.75 318.108V244.609C1123.93 242.84 1120.27 239.302 1118.01 236.558Z" fill="#FFD278"/>
<path d="M1090.69 278.461C1090.81 280.84 1092.94 282.609 1094.9 282.426C1096.85 282.243 1098.01 278.461 1098.01 278.461H1090.69Z" fill="#CCA183"/>
<path d="M1103.92 300.298H1099.04V279.132H1103.92V300.298Z" fill="#232020"/>
<path d="M1103.68 279.803H1083C1082.15 279.803 1081.48 279.071 1081.48 278.217V277.424C1081.48 276.57 1082.15 275.899 1083 275.899H1103.68C1104.53 275.899 1105.2 276.57 1105.2 277.424V278.217C1105.2 279.071 1104.53 279.803 1103.68 279.803Z" fill="#564141"/>
<path d="M1086.3 279.803C1084.53 279.803 1083.92 278.034 1083.92 276.082C1083.92 274.069 1083.92 272.239 1083.92 272.239C1083.92 272.239 1086.17 269.312 1091.54 269.312C1096.97 269.312 1099.29 271.69 1099.29 274.008C1099.29 276.326 1098.62 279.803 1096.97 279.803C1096.12 279.803 1093.43 279.803 1090.93 279.803C1088.55 279.803 1086.3 279.803 1086.3 279.803Z" fill="#ECC19E"/>
<path d="M1087.52 279.803V274.069C1087.52 273.886 1087.39 273.764 1087.21 273.764C1087.03 273.764 1086.91 273.886 1086.91 274.069V279.803H1087.52Z" fill="#BF9B80"/>
<path d="M1094.96 279.803V274.069C1094.96 273.886 1094.77 273.764 1094.65 273.764C1094.47 273.764 1094.35 273.886 1094.35 274.069V279.803H1094.96Z" fill="#BF9B80"/>
<path d="M1091.11 279.803V273.459C1091.11 273.276 1090.99 273.154 1090.81 273.154C1090.63 273.154 1090.5 273.276 1090.5 273.459V279.803H1091.11Z" fill="#BF9B80"/>
<path d="M1139.48 236.558C1144.3 238.814 1154.61 240.583 1156.32 242.535C1158.51 245.036 1166.81 268.336 1168.76 273.337C1170.77 278.278 1163.33 284.195 1159.37 281.023C1155.46 277.851 1151.68 264.31 1151.68 264.31L1151.19 318.108H1128.75V244.609C1133.57 242.84 1137.23 239.302 1139.48 236.558Z" fill="#F7C22B"/>
<path d="M1139.48 236.558L1142.47 248.757L1132.83 263.334L1128.75 318.108V244.609C1133.57 242.84 1137.23 239.302 1139.48 236.558Z" fill="#FFD278"/>
<path d="M1166.81 278.461C1166.75 280.84 1164.61 282.609 1162.6 282.426C1160.65 282.243 1159.55 278.461 1159.55 278.461H1166.81Z" fill="#CCA183"/>
<path d="M1153.57 300.298H1158.45V279.132H1153.57V300.298Z" fill="#232020"/>
<path d="M1153.88 279.803H1174.49C1175.35 279.803 1176.02 279.071 1176.02 278.217V277.424C1176.02 276.57 1175.35 275.899 1174.49 275.899H1153.88C1153.02 275.899 1152.29 276.57 1152.29 277.424V278.217C1152.29 279.071 1153.02 279.803 1153.88 279.803Z" fill="#564141"/>
<path d="M1171.2 279.803C1172.97 279.803 1173.58 278.034 1173.58 276.082C1173.58 274.069 1173.58 272.239 1173.58 272.239C1173.58 272.239 1171.38 269.312 1165.95 269.312C1160.53 269.312 1158.21 271.69 1158.21 274.008C1158.21 276.326 1158.94 279.803 1160.53 279.803C1161.38 279.803 1164.06 279.803 1166.56 279.803C1169 279.803 1171.2 279.803 1171.2 279.803Z" fill="#ECC19E"/>
<path d="M1170.04 279.803V274.069C1170.04 273.886 1170.16 273.764 1170.29 273.764C1170.47 273.764 1170.59 273.886 1170.59 274.069V279.803H1170.04Z" fill="#BF9B80"/>
<path d="M1162.6 279.803V274.069C1162.6 273.886 1162.72 273.764 1162.91 273.764C1163.03 273.764 1163.15 273.886 1163.15 274.069V279.803H1162.6Z" fill="#BF9B80"/>
<path d="M1166.38 279.803V273.459C1166.38 273.276 1166.56 273.154 1166.69 273.154C1166.87 273.154 1166.99 273.276 1166.99 273.459V279.803H1166.38Z" fill="#BF9B80"/>
<path d="M1142.84 433.815C1143.26 435.218 1151.01 439.487 1154.43 439.487C1157.84 439.487 1160.59 440.036 1160.59 441.317C1160.59 442.537 1160.59 443.757 1160.59 443.757H1132.9C1132.9 443.757 1132.96 441.195 1132.96 439.304C1132.96 437.414 1134.42 434.913 1134.42 434.913L1142.84 433.815Z" fill="#101011"/>
<path d="M1108.56 310.301C1104.84 326.342 1108.19 345.312 1109.66 357.694C1111.55 373.735 1114.05 431.741 1114.05 431.741H1126.13C1126.13 431.741 1127.47 396.974 1127.47 386.91C1127.47 376.846 1127.35 375.931 1127.47 367.026C1127.59 358.121 1127.77 334.15 1129.05 334.15V317.132L1108.56 310.301Z" fill="#BA8419"/>
<path d="M1149.61 310.301C1153.27 326.342 1149.97 345.312 1148.51 357.694C1146.62 373.735 1144.12 431.741 1144.12 431.741H1131.98C1131.98 431.741 1130.7 396.974 1130.7 386.91C1130.7 376.846 1130.82 375.931 1130.7 367.026C1130.52 358.121 1130.39 334.15 1129.05 334.15V317.132L1149.61 310.301Z" fill="#A87316"/>
<path d="M1142.9 431.741H1134.42V434.913L1142.84 433.815L1142.9 431.741Z" fill="#ECC19E"/>
<path d="M1144.79 432.291H1130.76V429.912H1144.79V432.291Z" fill="#F7C22B"/>
<path d="M1114.66 433.815C1114.23 435.218 1106.55 439.487 1103.07 439.487C1099.65 439.487 1096.97 440.036 1096.97 441.317C1096.97 442.537 1096.97 443.757 1096.97 443.757H1124.66C1124.66 443.757 1124.6 441.195 1124.6 439.304C1124.6 437.414 1123.08 434.913 1123.08 434.913L1114.66 433.815Z" fill="#101011"/>
<path d="M1114.66 431.741H1123.08V434.913L1114.66 433.815V431.741Z" fill="#ECC19E"/>
<path d="M1112.77 432.291H1126.74V429.912H1112.77V432.291Z" fill="#F7C22B"/>
<path d="M1114.72 206.731C1115.45 209.842 1115.15 214.051 1113.68 214.6C1112.22 215.088 1110.21 211.672 1109.47 208.561C1108.74 205.451 1109.66 203.743 1111.06 203.255C1112.52 202.767 1113.99 203.56 1114.72 206.731Z" fill="#E0B89B"/>
<path d="M1142.78 206.731C1142.04 209.842 1142.35 214.051 1143.81 214.6C1145.28 215.088 1147.35 211.672 1148.02 208.561C1148.75 205.451 1147.9 203.743 1146.44 203.255C1144.97 202.767 1143.51 203.56 1142.78 206.731Z" fill="#E0B89B"/>
<path d="M1128.75 182.15C1114.17 182.15 1110.39 197.033 1111.43 209.049C1112.16 218.747 1118.5 232.166 1128.75 232.166C1138.93 232.166 1145.28 218.747 1146.07 209.049C1147.05 197.033 1143.26 182.15 1128.75 182.15Z" fill="#ECC19E"/>
<path d="M1128.75 182.15C1114.17 182.15 1110.39 197.033 1111.43 209.049C1111.43 209.374 1111.45 209.7 1111.49 210.025C1111.49 203.133 1119.66 203.316 1130.39 192.58C1139.54 183.431 1145.58 202.34 1146.13 208.195C1146.86 196.362 1142.9 182.15 1128.75 182.15Z" fill="#3A2514"/>
<path d="M1128.75 198.436C1135.4 198.436 1141.62 203.926 1147.29 203.194C1146.31 194.594 1141.25 180.443 1128.75 180.443C1116.18 180.443 1111.12 194.594 1110.21 203.194C1115.88 203.926 1122.04 198.436 1128.75 198.436Z" fill="#F7C22B"/>
<path d="M1143.02 214.295L1128.75 208.745L1114.48 214.295C1114.48 214.295 1118.68 232.167 1128.75 232.167C1138.81 232.167 1143.02 214.295 1143.02 214.295Z" fill="#E1FEFF"/>
<path d="M1141.86 214.477C1143.63 215.209 1144.73 213.075 1145.22 208.744C1145.7 204.413 1144.97 203.132 1146.19 203.193" stroke="#EBFBFC" stroke-width="0.5" stroke-miterlimit="10"/>
<path d="M1115.63 214.477C1113.8 215.209 1112.77 213.075 1112.28 208.744C1111.79 204.413 1112.46 203.132 1111.3 203.193" stroke="#EBFBFC" stroke-width="0.5" stroke-miterlimit="10"/>
<path d="M1121.73 234.362C1121.61 235.155 1119.42 235.887 1118.01 236.558C1120.27 239.302 1123.93 242.84 1128.75 244.609V235.277L1121.73 234.362Z" fill="#E2B798"/>
<path d="M1135.82 234.362C1135.88 235.155 1138.08 235.887 1139.48 236.558C1137.23 239.302 1133.57 242.84 1128.75 244.609V235.277L1135.82 234.362Z" fill="#E2B798"/>
<path d="M1105.51 353.912H1175.53V420.396H1105.51V353.912Z" fill="#CE9C65"/>
<path d="M1085.99 353.912H1105.94V420.396H1085.99V353.912Z" fill="#DAA86A"/>
<path d="M1144.06 353.912H1151.32V420.396H1144.06V353.912Z" fill="#B78855"/>
<path d="M1151.13 353.912H1094.71V300.297H1151.13V353.912Z" fill="#CE9C65"/>
<path d="M1166.87 353.912H1150.77V300.297H1166.87V353.912Z" fill="#DAA86A"/>
<path d="M1120.09 353.912H1114.23V300.297H1120.09V353.912Z" fill="#B78855"/>
<g style="mix-blend-mode:multiply" opacity="0.4">
<path d="M1166.87 347.203H1094.71V353.912H1166.87V347.203Z" fill="#DAA86A"/>
</g>
<path d="M1181.02 423.811H1077.15V420.091H1181.02V423.811Z" fill="#AD3939"/>
<path d="M1094.71 443.757H1087.7V423.812H1094.71V443.757Z" fill="#232020"/>
<path d="M1170.35 443.757H1163.33V423.812H1170.35V443.757Z" fill="#232020"/>
<g style="mix-blend-mode:multiply">
<path d="M1485.71 375.858C1485.71 378.237 1429.84 380.189 1360.91 380.189C1291.99 380.189 1236.12 378.237 1236.12 375.858C1236.12 373.48 1291.99 371.528 1360.91 371.528C1429.84 371.528 1485.71 373.48 1485.71 375.858Z" fill="#DEE2E2"/>
</g>
<path d="M1410.01 343.653H1348.77V328.892H1410.01V343.653Z" fill="#161B13"/>
<path d="M1408.98 242.097L1413.73 260.883L1408.12 264.604L1400.74 242.097H1408.98Z" fill="#101410"/>
<path d="M1425.2 364.391C1417.58 352.558 1420.93 336.761 1432.76 329.075C1444.6 321.39 1460.46 324.745 1468.14 336.578C1475.83 348.472 1472.41 364.269 1460.58 371.955C1448.74 379.64 1432.89 376.224 1425.2 364.391Z" fill="#161B13"/>
<path d="M1430.45 360.975C1424.65 352.07 1427.21 340.115 1436.18 334.32C1445.15 328.526 1457.1 331.027 1462.89 339.993C1468.69 348.959 1466.13 360.914 1457.16 366.708C1448.26 372.503 1436.3 369.941 1430.45 360.975Z" fill="#2B3028"/>
<path d="M1435.81 357.498C1431.97 351.521 1433.68 343.531 1439.66 339.688C1445.63 335.784 1453.62 337.492 1457.53 343.469C1461.37 349.447 1459.66 357.437 1453.68 361.341C1447.71 365.245 1439.72 363.537 1435.81 357.498Z" fill="#8EC7CA"/>
<path d="M1448.2 352.619C1451.67 350.363 1452.65 345.727 1450.39 342.311L1431.6 313.278L1419.04 321.39L1437.89 350.424C1440.14 353.9 1444.72 354.876 1448.2 352.619Z" fill="#161B13"/>
<path d="M1262.59 350.545C1262.53 336.394 1273.99 324.988 1288.08 324.927C1302.23 324.927 1313.64 336.394 1313.7 350.484C1313.7 364.635 1302.23 376.041 1288.14 376.041C1273.99 376.102 1262.59 364.635 1262.59 350.545Z" fill="#161B13"/>
<path d="M1268.81 350.545C1268.81 339.871 1277.47 331.209 1288.08 331.209C1298.76 331.209 1307.42 339.81 1307.42 350.484C1307.42 361.158 1298.82 369.819 1288.14 369.819C1277.47 369.819 1268.81 361.219 1268.81 350.545Z" fill="#2B3028"/>
<path d="M1275.21 350.545C1275.21 343.409 1280.95 337.614 1288.08 337.614C1295.22 337.614 1301.01 343.348 1301.01 350.484C1301.01 357.621 1295.28 363.415 1288.14 363.415C1281.01 363.415 1275.21 357.682 1275.21 350.545Z" fill="#8EC7CA"/>
<path d="M1288.27 353.107C1289.55 353.107 1290.58 352.07 1290.58 350.789V311.082H1285.89V350.789C1285.89 352.07 1286.99 353.107 1288.27 353.107Z" fill="#E8E9EA"/>
<path d="M1417.76 263.323C1422.46 272.411 1425.99 282.231 1428.98 289.002C1427.27 288.819 1426.72 289.368 1426.11 288.331C1424.9 286.379 1420.81 276.742 1418.12 271.679C1416.11 267.836 1416.42 266.068 1417.76 263.323Z" fill="#8EC7CA"/>
<path d="M1266.43 292.6H1272.96C1275.09 294.796 1274.79 297.907 1273.81 301.749C1272.96 305.287 1271.31 308.642 1269.72 311.325C1269.18 310.899 1268.87 310.655 1268.87 310.655C1268.87 310.655 1264.3 306.629 1264.3 300.651C1264.3 294.613 1266.43 292.6 1266.43 292.6Z" fill="#B13A36"/>
<path d="M1348.77 310.838C1348.77 316.022 1362.13 340.054 1362.13 340.054C1355.91 340.054 1335.96 321.024 1335.42 315.717C1334.87 310.411 1326.69 294.796 1326.69 294.796L1327.36 292.6H1353.71C1353.71 292.6 1348.77 305.592 1348.77 310.838Z" fill="#C4870C"/>
<path d="M1327.24 340.176C1332.61 345.117 1336.82 347.923 1339.99 349.569L1330.29 350.972C1327.79 349.326 1324.74 347.008 1321.27 343.836C1316.81 339.749 1313.27 336.639 1310.1 334.199L1318.95 332.857C1321.39 334.931 1324.07 337.31 1327.24 340.176Z" fill="#C4870C"/>
<path d="M1397.2 239.901C1397.2 249.904 1397.87 256.858 1406.54 253.625C1415.2 250.331 1419.04 246.854 1419.04 242.402C1419.04 230.569 1397.2 228.129 1397.2 233.192C1397.2 238.193 1397.2 237.888 1397.2 239.901Z" fill="#F7C22B"/>
<path d="M1397.81 247.464C1397.81 249.904 1399.83 251.917 1402.27 251.917C1404.77 251.917 1406.78 249.904 1406.78 247.464C1406.78 244.964 1404.77 242.951 1402.27 242.951C1399.83 242.951 1397.81 244.964 1397.81 247.464Z" fill="#272B27"/>
<path d="M1397.81 248.257C1397.81 250.27 1399.46 251.917 1401.53 251.917C1403.55 251.917 1405.26 250.27 1405.26 248.257C1405.26 246.183 1403.55 244.537 1401.53 244.537C1399.46 244.537 1397.81 246.183 1397.81 248.257Z" fill="#101410"/>
<path d="M1429.77 324.439C1418.37 331.881 1413.43 345.544 1416.6 358.047C1435.2 357.681 1446.61 349.386 1453.87 341.945C1457.53 338.163 1464.91 334.93 1471.98 332.552C1462.41 319.072 1443.8 315.412 1429.77 324.439Z" fill="#F7C22B"/>
<path d="M1427.03 320.171C1427.21 320.049 1427.46 319.866 1427.82 319.622C1430.99 317.304 1432.89 313.583 1433.01 309.679V309.252C1433.13 300.774 1431.42 292.296 1427.94 284.55C1423.8 275.461 1418 263.201 1413.25 255.089C1413.25 255.089 1412.33 253.503 1408.55 255.272C1407.57 255.76 1406.66 256.492 1405.8 257.407C1407.08 265.214 1410.44 286.501 1410.44 301.567C1410.44 310.167 1409.89 319.012 1409.28 326.087C1408.61 334.077 1401.9 340.238 1393.91 340.055H1392.93H1371.22C1365.55 340.055 1361.16 336.456 1357.74 331.882C1350.79 322.488 1346.7 316.267 1344.99 313.583C1336.94 300.896 1331.82 292.601 1331.82 292.601H1266.43C1266.43 292.601 1264.3 294.614 1264.3 300.652C1264.3 306.63 1268.87 310.655 1268.87 310.655C1268.87 310.655 1284.73 323.708 1296.56 323.708C1308.46 323.708 1313.52 327.734 1327.24 340.177C1340.91 352.62 1347.07 351.705 1347.07 351.705H1411.84C1411.84 351.705 1411.9 351.542 1412.03 351.217C1410.56 337.188 1415.56 328.344 1427.03 320.171Z" fill="#F7C22B"/>
<path d="M1466.62 334.504C1458.5 324.379 1443.86 321.878 1432.76 329.075C1423.07 335.358 1419.04 347.13 1422.15 357.682C1437.52 355.974 1447.4 348.594 1453.87 341.945C1456.61 339.14 1461.43 336.639 1466.62 334.504Z" fill="#DB8931"/>
<path d="M1423.98 276.01C1427.88 294.125 1424.29 313.948 1420.38 325.781C1422.27 323.83 1424.53 322 1427.03 320.17C1427.21 320.048 1427.46 319.865 1427.82 319.621C1430.99 317.303 1432.89 313.583 1433.01 309.679V309.252C1433.13 300.774 1431.42 292.295 1427.94 284.549C1426.73 281.926 1425.38 278.999 1423.98 276.01Z" fill="#B76809"/>
<path d="M1301.14 296.138C1242.7 296.138 1238.37 351.704 1238.37 351.704H1357.56L1301.14 296.138Z" fill="#F7C22B"/>
<path d="M1291.87 311.326C1269.54 311.326 1251.49 329.381 1251.49 351.705H1332.31C1332.31 329.381 1314.19 311.326 1291.87 311.326Z" fill="#DB8931"/>
<path d="M1306.99 292.6C1278.51 292.6 1252.95 316.754 1252.95 316.754C1252.95 316.754 1253.93 292.6 1268.02 292.6C1282.11 292.6 1306.99 292.6 1306.99 292.6Z" fill="#161B13"/>
<path d="M1264.97 286.806H1353.78C1355.54 286.806 1357.01 288.209 1357.01 289.977C1357.01 291.746 1355.54 293.149 1353.78 293.149H1264.97C1263.2 293.149 1261.8 291.746 1261.8 289.977C1261.8 288.209 1263.2 286.806 1264.97 286.806Z" fill="#161B13"/>
<path d="M1419.16 230.447C1418.25 222.762 1419.53 221.603 1414.4 223.372C1409.89 224.957 1408 226.848 1408 229.166C1408 235.266 1417.7 235.632 1417.7 235.205C1417.7 232.582 1419.28 231.484 1419.16 230.447Z" fill="#F7C22B"/>
<path d="M1419.47 228.861C1419.47 225.384 1418.67 222.579 1417.7 222.579C1416.72 222.579 1415.93 225.384 1415.93 228.861C1415.93 232.338 1416.72 235.205 1417.7 235.205C1418.67 235.205 1419.47 232.338 1419.47 228.861Z" fill="#E8E9EA"/>
<path d="M1359.08 218.125C1359.08 218.125 1359.57 215.259 1359.69 214.588C1359.75 213.856 1362.62 213.673 1364.08 213.917C1365.55 214.161 1366.52 212.819 1366.65 211.965C1366.83 211.111 1367.5 206.658 1367.5 206.658C1367.5 206.658 1369.15 206.902 1369.51 206.963C1369.82 207.024 1369.82 206.109 1369.33 204.767C1368.84 203.426 1368.17 201.962 1368.29 201.108C1368.47 200.254 1373.6 188.055 1362.56 185.127C1351.58 182.138 1348.1 186.835 1346.52 189.031C1344.75 191.532 1342.43 198.058 1344.87 203.121C1347.07 207.573 1348.83 209.403 1349.02 211.416C1349.2 213.429 1348.53 216.478 1348.53 216.478L1359.08 218.125Z" fill="#ECC19E"/>
<path d="M1348.53 216.479C1348.29 217.089 1345.91 219.895 1345.05 222.274C1338.1 240.877 1339.75 244.537 1337.43 274.729L1361.03 272.534C1361.03 272.534 1360.91 256.614 1361.95 250.148C1362.92 243.683 1364.14 233.802 1362.68 227.092C1361.28 220.444 1359.2 216.296 1359.2 216.296L1348.53 216.479Z" fill="#F7C22B"/>
<path d="M1393.3 240.815C1397.69 240.327 1403.18 240.145 1404.83 241.242C1406.41 242.401 1408 243.194 1408 244.292C1408 245.329 1408 248.44 1408 248.989C1408 249.538 1406.41 250.453 1406.41 248.989C1406.41 247.464 1406.29 245.695 1406.29 245.085C1406.29 244.536 1404.16 243.377 1403 243.377C1401.84 243.377 1399.89 243.438 1399.16 244.536C1398.42 245.634 1398.3 246.122 1398.3 247.525C1398.3 248.928 1398.79 249.355 1399.58 249.782C1400.38 250.209 1400.44 250.758 1400.19 251.063C1399.95 251.368 1397.51 250.331 1396.35 249.355C1395.25 248.379 1394.21 247.464 1394.21 247.464L1393.3 240.815Z" fill="#ECC19E"/>
<path d="M1390.74 323.341C1390.86 324.866 1396.23 330.417 1399.7 331.088C1403.18 331.82 1405.8 332.917 1405.56 334.198C1405.32 335.479 1405.07 336.699 1405.07 336.699L1377.01 331.027C1377.01 331.027 1376.65 328.587 1377.01 326.696C1377.38 324.805 1377.93 323.28 1377.93 323.28L1390.74 323.341Z" fill="#101011"/>
<path d="M1337.43 274.729C1337.43 281.011 1335.42 289.551 1351.27 289.551C1367.13 289.551 1382.14 288.88 1382.14 288.88C1382.14 288.88 1380.61 294.247 1379.09 312.546C1378.91 315.108 1377.32 322.305 1377.93 323.281C1378.54 324.257 1380.43 332.064 1384.39 329.563C1388.36 327.124 1390.74 323.342 1390.74 323.342C1390.74 323.342 1395.62 285.464 1394.7 281.804C1393.85 278.145 1393.24 276.742 1387.81 276.742C1382.32 276.742 1362.92 276.071 1361.95 275.888C1360.97 275.644 1361.03 272.533 1361.03 272.533L1337.43 274.729Z" fill="#BA8419"/>
<path d="M1344.87 203.122C1342.43 198.059 1343.65 190.435 1345.42 187.934C1346.94 185.799 1351.58 182.139 1362.56 185.128C1367.99 186.531 1369.02 189.398 1369.21 191.106C1368.6 194.277 1368.05 196.351 1362.5 192.631C1360.18 191.106 1359.08 197.388 1358.84 199.767C1358.59 202.085 1357.31 204.891 1357.19 203.915C1357.01 202.878 1356.89 201.597 1355.97 200.499C1355.12 199.462 1353.59 199.584 1353.29 201.78C1352.92 203.976 1355 206.537 1355 206.537C1355 206.537 1352.13 210.258 1349.02 211.295C1348.77 209.343 1347 207.513 1344.87 203.122Z" fill="#2D1B1A"/>
<path d="M1369.76 195.619C1371.46 186.47 1362.62 177.747 1352.07 181.224C1342.92 184.335 1343.53 196.595 1343.53 196.595L1369.76 195.619Z" fill="#CC9833"/>
<path d="M1359.33 188.97C1379.39 192.63 1380.92 191.898 1380.92 193.545C1380.92 196.107 1357.13 196.107 1357.13 196.107L1359.33 188.97Z" fill="#CC9833"/>
<path d="M1368.72 202.146C1364.45 205.5 1359.87 204.097 1359.87 204.097L1357.68 212.088C1360.91 214.283 1365.61 214.893 1365.61 214.893C1365.61 214.893 1370.3 212.82 1370.18 208.062C1370.12 205.073 1368.72 202.146 1368.72 202.146Z" fill="#A5CFE5"/>
<path d="M1359.57 205.378L1359.87 204.097C1359.87 204.097 1364.45 205.5 1368.72 202.146C1368.72 202.146 1368.9 202.572 1369.21 203.304C1364.94 206.476 1360.42 205.622 1359.57 205.378Z" fill="#E6FEFF"/>
<path d="M1360.91 204.281L1358.47 212.576C1358.23 212.413 1357.96 212.251 1357.68 212.088L1359.87 204.098C1359.87 204.098 1360.3 204.22 1360.91 204.281Z" fill="#D3E3EF"/>
<path d="M1360.91 205.134L1360.97 204.707C1360.12 204.585 1358.96 203.121 1358.04 201.962C1357.07 200.681 1356.46 199.888 1355.91 199.888C1355.73 199.888 1355.6 199.949 1355.54 200.071L1355.85 200.376C1355.89 200.335 1355.91 200.315 1355.91 200.315C1356.28 200.315 1357.07 201.291 1357.74 202.206C1358.72 203.487 1359.87 205.012 1360.91 205.134Z" fill="#E6FEFF"/>
<path d="M1358.53 212.209L1358.78 211.904C1354.87 209.22 1353.04 204.463 1353.29 203.426C1353.33 203.345 1353.35 203.304 1353.35 203.304L1353.29 202.877C1353.17 202.877 1352.98 202.999 1352.92 203.304C1352.62 204.585 1354.57 209.464 1358.53 212.209Z" fill="#E6FEFF"/>
<path d="M1362.19 221.297C1359.02 215.259 1350.42 216.418 1350.42 225.872C1350.42 233.191 1349.93 237.339 1357.19 246.366L1366.04 240.45C1366.04 231.301 1364.21 225.201 1362.19 221.297Z" fill="#F7C22B"/>
<path d="M1365.24 255.088C1368.23 254.661 1394.4 247.403 1394.4 247.403L1393.3 240.755C1393.3 240.755 1367.5 246.671 1367.32 245.451C1367.26 245.024 1366.77 243.072 1366.04 240.45L1357.19 246.366C1358.23 248.196 1359.33 250.27 1360.61 252.649C1361.4 254.174 1362.31 255.576 1365.24 255.088Z" fill="#ECC19E"/>
<path d="M1308.88 286.806H1245.08V211.294H1308.88V286.806Z" fill="#DAA86A"/>
<path d="M1326.69 286.806H1308.52V211.294H1326.69V286.806Z" fill="#F4DB9A"/>
<path d="M1283.33 286.806H1275.21V211.294H1283.33V286.806Z" fill="#B78855"/>
<g style="mix-blend-mode:multiply" opacity="0.5">
<path d="M1245.08 253.076V244.964H1326.69V253.076H1245.08Z" fill="#B78855"/>
</g>
<defs>
<linearGradient id="paint0_linear_733_884" x1="1554.84" y1="227.616" x2="112.673" y2="194.669" gradientUnits="userSpaceOnUse">
<stop stop-color="#8ECAFF"/>
<stop offset="1" stop-color="#8ECAFF" stop-opacity="0"/>
</linearGradient>
</defs>
</svg>
