<svg width="48" height="48" viewBox="0 0 48 48" fill="none" xmlns="http://www.w3.org/2000/svg">
<g id="Frame" clip-path="url(#clip0_608_728)">
<circle id="Ellipse 398" cx="34.1982" cy="12.3135" r="7" fill="#F5AA33"/>
<g id="Group">
<path id="Vector" d="M1.81395 36.0042L3.76248 38.6021L1.72645 43.3522C1.6031 43.6405 1.67553 43.9751 1.9079 44.1856C2.0463 44.3111 2.22344 44.376 2.4013 44.376C2.5225 44.376 2.64441 44.3462 2.75486 44.2849L17.4424 36.2068C17.6776 36.0781 17.8232 35.8314 17.8232 35.5635C17.8232 35.2956 17.6776 35.0489 17.4424 34.9202L2.75486 26.8421C2.48235 26.6911 2.14026 26.7302 1.9079 26.9414C1.67553 27.1519 1.6031 27.4864 1.72645 27.7747L3.76248 32.5249L1.81395 35.1228C1.61815 35.3838 1.61815 35.7431 1.81395 36.0042ZM5.1332 39.1312L12.0273 37.5091L3.91667 41.9699L5.1332 39.1312ZM12.0273 33.6179L5.1332 31.9957L3.91666 29.1571L12.0273 33.6179ZM4.90353 33.451L13.8815 35.5635L4.90353 37.6759L3.31927 35.5635L4.90353 33.451Z" fill="white"/>
<path id="Vector_2" d="M33.9795 0.313477C27.7485 0.313477 22.6489 5.19274 22.2667 11.3291H20.3304L18.3425 9.34113L17.304 10.3796L18.2535 11.3291H15.2529C11.0009 11.3291 7.54199 14.7883 7.54199 19.04C7.54199 23.2917 11.0009 26.751 15.2529 26.751H23.3942L25.3821 28.739L26.4206 27.7005L25.4711 26.751H39.4873C41.7141 26.751 43.5264 28.5629 43.5264 30.79C43.5264 33.0172 41.7141 34.8291 39.4873 34.8291H32.8148L30.8268 32.8411L29.7884 33.8796L30.7379 34.8291H19.292V36.2979H30.7379L29.7884 37.2474L30.8268 38.2858L32.8148 36.2979H39.4873C42.5245 36.2979 44.9951 33.8272 44.9951 30.79C44.9951 27.7529 42.5245 25.2822 39.4873 25.2822H25.4711L26.4206 24.3327L25.3821 23.2943L23.3942 25.2822H15.2529C11.8113 25.2822 9.01074 22.4821 9.01074 19.04C9.01074 15.598 11.8113 12.7979 15.2529 12.7979H18.2535L17.304 13.7474L18.3425 14.7858L20.3304 12.7979H22.2667C22.6489 18.9342 27.7485 23.8135 33.9795 23.8135C40.4583 23.8135 45.7295 18.5423 45.7295 12.0635C45.7295 5.58462 40.4583 0.313477 33.9795 0.313477ZM33.9795 22.3447C28.5582 22.3447 24.1146 18.1242 23.7354 12.7979H25.9386C26.3113 16.9088 29.7731 20.1416 33.9795 20.1416C38.4338 20.1416 42.0576 16.5178 42.0576 12.0635C42.0576 7.60918 38.4338 3.98535 33.9795 3.98535C29.7731 3.98535 26.3113 7.21814 25.9386 11.3291H23.7354C24.1146 6.00273 28.5582 1.78223 33.9795 1.78223C39.6487 1.78223 44.2607 6.3943 44.2607 12.0635C44.2607 17.7327 39.6487 22.3447 33.9795 22.3447ZM32.2956 14.7858L34.4987 12.5827C34.7856 12.2958 34.7856 11.8311 34.4987 11.5443L32.2956 9.34113L31.2571 10.3796L32.2067 11.3291H27.4135C27.7802 8.02957 30.5834 5.4541 33.9795 5.4541C37.6241 5.4541 40.5889 8.41921 40.5889 12.0635C40.5889 15.7077 37.6241 18.6729 33.9795 18.6729C30.5834 18.6729 27.7802 16.0974 27.4135 12.7979H32.2067L31.2571 13.7474L32.2956 14.7858Z" fill="white"/>
<path id="Vector_3" d="M38.3857 12.0635C38.3857 9.63373 36.4092 7.65723 33.9795 7.65723V9.12598C35.5996 9.12598 36.917 10.4438 36.917 12.0635C36.917 13.6832 35.5996 15.001 33.9795 15.001V16.4697C36.4092 16.4697 38.3857 14.4932 38.3857 12.0635Z" fill="white"/>
</g>
</g>
<defs>
<clipPath id="clip0_608_728">
<rect width="47" height="47" fill="white" transform="translate(0.198242 0.313477)"/>
</clipPath>
</defs>
</svg>
