<svg width="51" height="51" viewBox="0 0 51 51" fill="none" xmlns="http://www.w3.org/2000/svg">
<rect width="51" height="51" fill="#B7B7B7"/>
<g id="About_us" clip-path="url(#clip0_0_1)">
<rect width="1440" height="4503" transform="translate(-614 -722)" fill="white"/>
<g id="Group 427322081">
<g id="Group 1497">
<g id="Frame 5054">
<g id="Frame 5018" filter="url(#filter0_d_0_1)">
<rect x="-103.802" y="-34.6865" width="257.667" height="262" rx="10" fill="white" shape-rendering="crispEdges"/>
<g id="Frame" clip-path="url(#clip1_0_1)">
<g id="Group">
<g id="Group_2">
<path id="Vector" d="M49.8169 38.1031L40.0594 28.3456C39.1818 27.468 38.015 26.9847 36.7738 26.9847C35.5326 26.9847 34.3658 27.468 33.4882 28.3456L32.0768 29.7569L27.2099 24.89C26.7966 24.4768 26.2941 24.2057 25.7638 24.0768V4.17676C25.7638 3.77227 25.4359 3.44434 25.0314 3.44434C24.6269 3.44434 24.299 3.77227 24.299 4.17676V5.00996H18.7688C17.9332 5.00996 17.2535 5.68965 17.2535 6.5252V8.14121H12.5062C12.2423 8.14121 11.9989 8.2832 11.8689 8.51279C11.7388 8.74248 11.7424 9.02422 11.8781 9.25049L14.0005 12.7878L11.8781 16.3251C11.7424 16.5514 11.7388 16.8332 11.8689 17.0628C11.9989 17.2924 12.2423 17.4344 12.5062 17.4344H19.5517C19.9562 17.4344 20.2841 17.1064 20.2841 16.702C20.2841 16.2975 19.9562 15.9695 19.5517 15.9695H13.7998L15.4827 13.1646C15.6219 12.9327 15.6219 12.6429 15.4827 12.4109L13.7998 9.60606H17.2536V13.5706C17.2536 13.9751 17.5816 14.303 17.9861 14.303H24.299V24.0768C23.7688 24.2057 23.2662 24.4768 22.853 24.89L15.2461 32.4969L15.009 32.2598C13.1974 30.4481 10.2495 30.448 8.43782 32.2598L0.24602 40.4517C-0.0400146 40.7377 -0.0400146 41.2015 0.24602 41.4874C0.388989 41.6304 0.576489 41.702 0.763892 41.702C0.951294 41.702 1.13879 41.6305 1.28176 41.4874L9.47356 33.2955C10.7142 32.0551 12.7327 32.055 13.9732 33.2955L14.2103 33.5326L1.81165 45.9313C1.52561 46.2174 1.52561 46.6812 1.81165 46.9671C2.09768 47.2531 2.56145 47.2531 2.84739 46.9671L13.2891 36.5254L14.404 37.6403C14.852 38.0884 15.4406 38.3123 16.029 38.3123C16.6175 38.3123 17.206 38.0884 17.654 37.6403L20.299 34.9954C20.3027 34.9918 20.3137 34.9807 20.3346 34.9807C20.3555 34.9807 20.3666 34.9918 20.3702 34.9954L21.4495 36.0747C22.3456 36.9707 23.8035 36.9706 24.6995 36.0747L27.6205 33.1536C27.9196 32.8546 28.4062 32.8546 28.7052 33.1536C28.9912 33.4396 29.455 33.4396 29.7409 33.1536C30.027 32.8676 30.027 32.4038 29.7409 32.1179C28.8708 31.2477 27.4548 31.2477 26.5847 32.1179L23.6637 35.0389C23.3389 35.3638 22.8102 35.3639 22.4853 35.0389L21.406 33.9596C21.1198 33.6733 20.7393 33.5158 20.3345 33.5158C19.9297 33.5158 19.5492 33.6734 19.2631 33.9596L16.6182 36.6045C16.2934 36.9294 15.7648 36.9294 15.4399 36.6045L14.3249 35.4896L23.8888 25.9257C24.1941 25.6205 24.5998 25.4523 25.0316 25.4523C25.4633 25.4523 25.8691 25.6204 26.1743 25.9257L35.3468 35.0981L34.6233 35.8217C34.2984 36.1465 33.7698 36.1465 33.4449 35.8217L31.9248 34.3016C31.6388 34.0155 31.175 34.0155 30.8891 34.3016C30.6031 34.5876 30.6031 35.0514 30.8891 35.3373L32.4092 36.8574C32.8572 37.3055 33.4457 37.5294 34.0342 37.5294C34.6227 37.5294 35.2112 37.3055 35.6592 36.8574L36.3827 36.1339L47.2158 46.967C47.3588 47.11 47.5463 47.1815 47.7337 47.1815C47.9211 47.1815 48.1086 47.1101 48.2516 46.967C48.5376 46.681 48.5376 46.2172 48.2516 45.9313L33.1127 30.7928L34.5241 29.3814C35.1251 28.7806 35.924 28.4496 36.774 28.4496C37.6239 28.4496 38.4228 28.7806 39.0238 29.3814L48.7813 39.139C48.9242 39.2819 49.1117 39.3535 49.2991 39.3535C49.4865 39.3535 49.674 39.282 49.817 39.139C50.1031 38.8529 50.1031 38.3892 49.8169 38.1031ZM18.7185 12.8382V6.5252C18.7185 6.49736 18.741 6.4748 18.7689 6.4748H24.299V12.8383H18.7185V12.8382Z" fill="black"/>
</g>
</g>
<path id="Vector 83" d="M18.1975 13.3135H25.1975V5.81348H18.1975V13.3135Z" fill="#F5AA33" stroke="black"/>
</g>
</g>
</g>
</g>
</g>
</g>
<defs>
<filter id="filter0_d_0_1" x="-119.802" y="-50.6865" width="289.667" height="294" filterUnits="userSpaceOnUse" color-interpolation-filters="sRGB">
<feFlood flood-opacity="0" result="BackgroundImageFix"/>
<feColorMatrix in="SourceAlpha" type="matrix" values="0 0 0 0 0 0 0 0 0 0 0 0 0 0 0 0 0 0 127 0" result="hardAlpha"/>
<feOffset/>
<feGaussianBlur stdDeviation="8"/>
<feComposite in2="hardAlpha" operator="out"/>
<feColorMatrix type="matrix" values="0 0 0 0 0 0 0 0 0 0 0 0 0 0 0 0 0 0 0.08 0"/>
<feBlend mode="normal" in2="BackgroundImageFix" result="effect1_dropShadow_0_1"/>
<feBlend mode="normal" in="SourceGraphic" in2="effect1_dropShadow_0_1" result="shape"/>
</filter>
<clipPath id="clip0_0_1">
<rect width="1440" height="4503" fill="white" transform="translate(-614 -722)"/>
</clipPath>
<clipPath id="clip1_0_1">
<rect width="50" height="50" fill="white" transform="translate(0.0314941 0.313477)"/>
</clipPath>
</defs>
</svg>
