<svg width="51" height="51" viewBox="0 0 51 51" fill="none" xmlns="http://www.w3.org/2000/svg">
<g id="Frame">
<ellipse id="Ellipse 399" cx="40.1968" cy="10.8135" rx="5" ry="5.5" fill="#F5AA33"/>
<g id="Group">
<g id="Group_2">
<g id="Group_3">
<path id="Vector" d="M49.1968 11.1217V10.6038C49.1968 5.48096 45.0293 1.31348 39.9065 1.31348C34.7836 1.31348 30.6161 5.48096 30.6161 10.6038V11.1217C30.6161 12.9628 31.1557 14.745 32.1769 16.2748L35.9619 21.9527C33.5929 22.6216 32.1645 23.8619 32.1645 25.3135V35.3106C31.3849 34.7989 30.3359 34.394 29.0677 34.1339V29.6931C29.0677 28.6588 28.6644 27.6864 27.9335 26.9555L22.8742 21.8962V17.4624C26.8915 16.6874 29.8419 13.1702 29.8419 9.01283V4.02315C29.8419 2.52896 28.6265 1.31348 27.1323 1.31348C25.6381 1.31348 24.4226 2.52896 24.4226 4.02315V7.94831C24.4226 9.68019 23.293 11.1527 21.6974 11.6435C22.4321 10.7184 22.8742 9.55167 22.8742 8.28122C22.8742 5.29283 20.4425 2.86186 17.4548 2.86186C14.4672 2.86186 12.0355 5.29283 12.0355 8.28122C12.0355 9.84044 12.7013 11.2433 13.7581 12.2327C10.2076 12.6438 6.97613 14.6923 5.11729 17.7899L1.56684 23.7078C1.32452 24.1104 1.19678 24.5718 1.19678 25.0433C1.19678 26.4732 2.36039 27.6361 3.79033 27.6361H4.09536C4.964 27.6361 5.77071 27.2041 6.25226 26.4817L11.0468 19.2895C11.2907 18.9225 11.6383 18.6477 12.0355 18.4921V26.7535L9.05484 37.1857C9.05252 37.1935 9.05174 37.2012 9.0502 37.2082C6.10129 37.7873 4.29355 39.1367 4.29355 40.7973V45.4425C4.29355 47.6497 7.62181 49.3135 12.0355 49.3135C15.1849 49.3135 17.7738 48.4634 19.0032 47.1767C20.2326 48.4642 22.8216 49.3135 25.971 49.3135C29.1204 49.3135 31.7093 48.4634 32.9387 47.1767C34.1681 48.4642 36.757 49.3135 39.9065 49.3135C44.3201 49.3135 47.6484 47.6497 47.6484 45.4425V25.3135C47.6484 23.8603 46.22 22.6216 43.851 21.9535L47.636 16.2755C48.6572 14.745 49.1968 12.9628 49.1968 11.1217ZM29.0337 35.7132C31.0721 36.1862 32.1645 37.0464 32.1645 37.7006C32.1645 38.6482 29.7521 40.0232 25.971 40.0232C22.1898 40.0232 19.7774 38.6482 19.7774 37.7006C19.7774 37.0464 20.8698 36.1862 22.9083 35.7132C23.0778 37.2616 24.3777 38.4748 25.971 38.4748C27.5643 38.4748 28.8641 37.2616 29.0337 35.7132ZM18.229 38.4121C17.5253 37.9491 16.6009 37.5736 15.4954 37.3127L18.7702 26.9432L22.8742 30.9604V34.1339C19.9919 34.7246 18.229 36.0616 18.229 37.7006V38.4121ZM18.2074 20.3695L17.4548 21.122L16.7023 20.3695L17.1475 13.6975H17.3844C17.4084 13.6975 17.4308 13.7006 17.4548 13.7006C17.4804 13.7006 17.5044 13.6975 17.5292 13.6967H17.5323H17.5346C17.6112 13.6959 17.6856 13.6897 17.7614 13.6851L18.2074 20.3695ZM13.5839 8.28122C13.5839 6.14677 15.3204 4.41025 17.4548 4.41025C19.5893 4.41025 21.3258 6.14677 21.3258 8.28122C21.3258 10.4157 19.5893 12.1522 17.4548 12.1522C15.3204 12.1522 13.5839 10.4157 13.5839 8.28122ZM10.4871 38.0133C10.4871 37.8771 10.5057 37.7424 10.5436 37.6115L13.5545 27.074L13.5839 16.7973H12.8097C11.581 16.7973 10.4399 17.4082 9.75858 18.4301L4.964 25.6224C4.76891 25.9135 4.44452 26.0877 4.09458 26.0877H3.79033C3.21355 26.0877 2.74516 25.6193 2.74516 25.0433C2.74516 24.8536 2.79626 24.6678 2.89381 24.506L6.44503 18.5873C8.25355 15.5726 11.5609 13.7006 15.0757 13.7006L15.5952 13.6998L15.1106 20.9672L17.4548 23.3114L19.7991 20.9672L19.3021 13.5194L21.0905 13.3406C23.8729 13.0626 25.971 10.7439 25.971 7.94831V4.02315C25.971 3.3829 26.492 2.86186 27.1323 2.86186C27.7725 2.86186 28.2936 3.3829 28.2936 4.02315V9.01283C28.2936 12.6144 25.5947 15.6299 22.0148 16.0286L21.3258 16.1044V22.5372L26.8388 28.0502C27.2778 28.4892 27.5194 29.0722 27.5194 29.6931V35.378C27.5194 36.2319 26.8249 36.9264 25.971 36.9264C25.117 36.9264 24.4226 36.2319 24.4226 35.378V30.9604C24.4226 30.547 24.253 30.1437 23.9565 29.8533L19.3191 25.3135H17.6616L13.3385 39.0035C13.1465 39.6136 12.5867 40.0232 11.9472 40.0232C11.1421 40.0232 10.4871 39.3682 10.4871 38.563V38.0133ZM8.96349 38.8115C9.09278 40.353 10.3733 41.5715 11.9472 41.5715C13.2657 41.5715 14.4177 40.7269 14.8148 39.4688L15.0262 38.7984C17.1049 39.2706 18.229 40.1439 18.229 40.7973C18.229 41.745 15.8166 43.1199 12.0355 43.1199C8.25433 43.1199 5.84194 41.745 5.84194 40.7973C5.84194 40.1439 6.93123 39.2853 8.96349 38.8115ZM12.0355 47.7651C8.25433 47.7651 5.84194 46.3901 5.84194 45.4425V43.1695C7.23084 44.0915 9.44271 44.6683 12.0355 44.6683C14.6283 44.6683 16.8401 44.0915 18.229 43.1695V45.4425C18.229 46.3901 15.8166 47.7651 12.0355 47.7651ZM25.971 47.7651C22.1898 47.7651 19.7774 46.3901 19.7774 45.4425V40.7973V40.0727C21.1663 40.9948 23.3782 41.5715 25.971 41.5715C28.5637 41.5715 30.7756 40.9948 32.1645 40.0727V45.4425C32.1645 46.3901 29.7521 47.7651 25.971 47.7651ZM39.9065 47.7651C36.1253 47.7651 33.7129 46.3901 33.7129 45.4425V37.7006V27.6856C35.1018 28.6077 37.3137 29.1844 39.9065 29.1844C42.4992 29.1844 44.7111 28.6077 46.1 27.6856V45.4425C46.1 46.3901 43.6876 47.7651 39.9065 47.7651ZM46.1 25.3135C46.1 26.2611 43.6876 27.6361 39.9065 27.6361C36.1253 27.6361 33.7129 26.2611 33.7129 25.3135C33.7129 24.6763 34.8262 23.8015 36.877 23.3253L38.0592 25.0982C38.4711 25.7176 39.1625 26.0877 39.9065 26.0877C40.6505 26.0877 41.3418 25.7176 41.7545 25.099L42.9366 23.3261C44.9875 23.8015 46.1 24.6748 46.1 25.3135ZM40.4662 24.2397C40.2169 24.6144 39.5968 24.6144 39.3475 24.2397L33.4652 15.4162C32.6143 14.1411 32.1645 12.6562 32.1645 11.1217V10.6038C32.1645 6.3349 35.6376 2.86186 39.9065 2.86186C44.1754 2.86186 47.6484 6.3349 47.6484 10.6038V11.1217C47.6484 12.6554 47.1986 14.1403 46.3477 15.4162L40.4662 24.2397Z" fill="black"/>
<path id="Vector_2" d="M39.906 4.41016C36.491 4.41016 33.7124 7.18874 33.7124 10.6037C33.7124 14.0187 36.491 16.7973 39.906 16.7973C43.3209 16.7973 46.0995 14.0187 46.0995 10.6037C46.0995 7.18874 43.3209 4.41016 39.906 4.41016ZM39.906 15.2489C37.3441 15.2489 35.2608 13.1655 35.2608 10.6037C35.2608 8.0419 37.3441 5.95854 39.906 5.95854C42.4678 5.95854 44.5511 8.0419 44.5511 10.6037C44.5511 13.1655 42.4678 15.2489 39.906 15.2489Z" fill="black"/>
<path id="Vector_3" d="M35.2632 30.7324H36.8116V32.2808H35.2632V30.7324Z" fill="black"/>
<path id="Vector_4" d="M35.2632 33.8301H36.8116V44.6688H35.2632V33.8301Z" fill="black"/>
</g>
</g>
</g>
</g>
</svg>
