<svg width="21" height="19" viewBox="0 0 21 19" fill="none" xmlns="http://www.w3.org/2000/svg">
<path id="Vector" d="M19.375 7.75162H4.05583L8.74458 2.11995C8.96383 1.85617 9.06931 1.5161 9.03782 1.17455C9.00633 0.832999 8.84045 0.517946 8.57667 0.298701C8.31289 0.0794552 7.97282 -0.0260248 7.63127 0.00546569C7.28971 0.0369562 6.97466 0.202838 6.75542 0.466618L0.297083 8.21662C0.253633 8.27826 0.214777 8.34302 0.180833 8.41037C0.180833 8.47495 0.180834 8.5137 0.0904169 8.57828C0.0318701 8.72639 0.00121561 8.88404 0 9.04328C0.00121561 9.20253 0.0318701 9.36018 0.0904169 9.50828C0.0904169 9.57287 0.0904165 9.61162 0.180833 9.6762C0.214777 9.74355 0.253633 9.80831 0.297083 9.86995L6.75542 17.6199C6.87686 17.7658 7.02894 17.883 7.20084 17.9634C7.37274 18.0438 7.56024 18.0853 7.75 18.0849C8.0518 18.0855 8.34428 17.9804 8.57667 17.7879C8.70746 17.6794 8.81557 17.5463 8.89482 17.396C8.97407 17.2457 9.02289 17.0813 9.03848 16.9121C9.05408 16.7429 9.03615 16.5723 8.98572 16.4101C8.93529 16.2478 8.85334 16.0971 8.74458 15.9666L4.05583 10.335H19.375C19.7176 10.335 20.0461 10.1989 20.2883 9.95663C20.5306 9.7144 20.6667 9.38585 20.6667 9.04328C20.6667 8.70071 20.5306 8.37217 20.2883 8.12994C20.0461 7.8877 19.7176 7.75162 19.375 7.75162Z" fill="black"/>
</svg>
